<ttFont>
          <CharString index="0">
            -25 callsubr
            106 49 70 89 70 -46 68 -87 6 callgsubr
            -98 -49 -76 -84 -74 50 -63 75 hvcurveto
            -467 hmoveto
            1 hlineto
            103 50 70 89 70 -46 68 -86 82 callgsubr
            -48 -76 -84 -77 49 -60 77 hvcurveto
            return
          </CharString>
          <CharString index="1">
            1135 hlineto
            59 359 -128 38 -113 -251 -550 -22 rlineto
            598 vlineto
            326 -5 29 -176 rlineto
            129 474 -129 hlineto
            -30 -166 -325 -6 69 callgsubr
            479 -13 62 -190 rlineto
            -82 callsubr
            return
          </CharString>
          <CharString index="2">
            615 108 hlineto
            -217 18 rlineto
            865 275 144 -275 vlineto
            -1 173 rlineto
            159 45 41 130 97 75 -33 -19 22 vhcurveto
            224 vlineto
            7 -23 -30 9 -67 hhcurveto
            -237 -240 -204 -262 hvcurveto
            -95 vlineto
            -191 -45 rlineto
            -99 191 -864 vlineto
            -169 -19 rlineto
            return
          </CharString>
          <CharString index="3">
            rmoveto
            -336 158 -260 359 275 268 209 386 336 -158 260 -360 -273 -269 -213 -382 vhcurveto
            530 -472 rmoveto
            -200 -78 209 281 303 95 150 183 202 75 -210 -280 -303 -94 -150 -183 hvcurveto
            return
          </CharString>
          <CharString index="4">
            rmoveto
            -6 65 166 -87 238 hhcurveto
            370 176 231 210 246 -228 113 -192 95 hvcurveto
            -214 105 -137 68 159 vvcurveto
            142 87 76 183 100 88 -30 -26 24 vhcurveto
            46 -243 rlineto
            134 hlineto
            13 343 rlineto
            9 -61 -147 64 -195 hhcurveto
            -306 -192 -166 -228 -269 240 -126 164 -74 hvcurveto
            209 -94 140 -73 -161 vvcurveto
            -154 -97 -97 -203 -124 -108 41 46 -43 vhcurveto
            -40 256 rlineto
            -139 hlineto
            return
          </CharString>
          <CharString index="5">
            rmoveto
            -101 callgsubr
            return
          </CharString>
          <CharString index="6">
            98 -122 650 vlineto
            291 -98 110 -289 -193 -224 -115 -42 -46 vhcurveto
            50 -104 rlineto
            1 hlineto
            37 73 133 58 150 hhcurveto
            176 47 -71 -181 hvcurveto
            -52 vlineto
            return
          </CharString>
          <CharString index="7">
            220 hintmask 00000000
            hintmask 01110101
            -91 callsubr
            hintmask 10110101
            -101 callsubr
            hintmask 01110101
            -98 callsubr
            hintmask 00001010
            return
          </CharString>
          <CharString index="8">
            rmoveto
            -326 2 172 -248 346 hhcurveto
            157 155 79 71 68 hvcurveto
            -43 92 rlineto
            -42 -59 -101 -46 -126 hhcurveto
            -180 -149 147 347 2 hvcurveto
            284 1 116 141 173 hhcurveto
            73 63 -19 -46 19 hvcurveto
            46 -187 rlineto
            139 hlineto
            10 308 rlineto
            20 -53 -117 42 -138 hhcurveto
            -381 -196 -281 -336 1 hvcurveto
            return
          </CharString>
          <CharString index="9">
            -343 -6 -327 -103 -280 vvcurveto
            249 29 rmoveto
            132 113 114 308 1 vhcurveto
            -359 vlineto
            -51 -66 -101 -40 -62 hhcurveto
            -110 -82 56 147 hvcurveto
            return
          </CharString>
          <CharString index="10">
            -102 callgsubr
            endchar
          </CharString>
          <CharString index="11">
            -25 callsubr
            89 28 237 123 78 101 -153 127 rcurveline
            -1 hlineto
            -331 -311 rlineto
            return
          </CharString>
          <CharString index="12">
            hmoveto
            686 -56 callsubr
            -224 23 rlineto
            465 vlineto
            420 789 133 -23 callgsubr
            -473 -67 callgsubr
            162 -25 -268 -546 -65 -143 -57 145 -282 543 155 -68 callsubr
            -548 -67 callgsubr
            128 -27 452 -792 rlineto
            -459 vlineto
            -219 -24 rlineto
            return
          </CharString>
          <CharString index="13">
            -104 callsubr
            endchar
          </CharString>
          <CharString index="14">
            rmoveto
            2 hlineto
            92 36 260 212 55 93 -159 139 rcurveline
            -1 hlineto
            -330 -406 rlineto
            return
          </CharString>
          <CharString index="15">
            11 -54 -62 8 -65 hhcurveto
            -370 -220 -279 -347 -386 209 -179 237 hvcurveto
            92 154 rmoveto
            -164 -133 131 313 5 hvcurveto
            346 5 143 129 182 hhcurveto
            90 85 -29 -32 20 hvcurveto
            -752 vlineto
            -47 -42 -84 -59 -107 hhcurveto
            return
          </CharString>
          <CharString index="16">
            85 302 rmoveto
            -226 161 -99 185 167 128 107 43 44 vhcurveto
            -48 vlineto
            -91 31 -11 76 71 99 23 12 50 vhcurveto
            return
          </CharString>
          <CharString index="17">
            rmoveto
            -21 43 77 -16 73 hhcurveto
            222 63 213 134 57 hvcurveto
            427 1061 112 -68 callsubr
            -445 126 callgsubr
            -254 -706 -61 -177 -55 175 -311 707 191 -68 callsubr
            -563 -67 callgsubr
            117 -25 500 -1064 rlineto
            -124 -45 -39 -28 -127 hhcurveto
            -5 -139 1 1 -2 hvcurveto
            return
          </CharString>
          <CharString index="18">
            58 callgsubr
            331 -66 141 -262 -150 -177 -86 -79 -88 vhcurveto
            1 46 rlineto
            81 vlineto
            -47 39 rlineto
            -5 hlineto
            -296 -40 rlineto
            -120 vlineto
            143 -40 76 callgsubr
            return
          </CharString>
          <CharString index="19">
            rmoveto
            254 141 96 212 11 -1 22 -1 11 hvcurveto
            -170 hlineto
            -29 -5 -46 -38 -98 -46 -67 -142 -142 -46 67 98 38 -5 46 -29 hvcurveto
            -170 hlineto
            -1 -11 -1 -22 -11 vvcurveto
            -211 144 -97 249 vhcurveto
            return
          </CharString>
          <CharString index="20">
            -53 27 rlineto
            -2 hlineto
            -316 -29 rlineto
            -97 vlineto
            143 -39 rlineto
            -770 vlineto
            -39 -49 -95 -60 -117 hhcurveto
            -162 -39 82 219 hvcurveto
            return
          </CharString>
          <CharString index="21">
            1334 -93 callsubr
            return
          </CharString>
          <CharString index="22">
            79 -68 callgsubr
            return
          </CharString>
          <CharString index="23">
            130 callsubr
            -776 vlineto
            -320 -120 -186 -239 -223 -152 130 387 vhcurveto
            765 vlineto
            return
          </CharString>
          <CharString index="24">
            578 -56 callsubr
            -180 25 rlineto
            70 vlineto
            610 740 125 199 rlineto
            -1010 vlineto
            -174 61 callsubr
            575 7 callsubr
            -170 24 rlineto
            1252 vlineto
            161 66 callsubr
            170 -25 rlineto
            -53 vlineto
            -598 -735 -137 -210 rlineto
            return
          </CharString>
          <CharString index="25">
            129 hlineto
            -28 317 rlineto
            -1042 -111 hlineto
            -74 callgsubr
            return
          </CharString>
          <CharString index="26">
            -406 vlineto
            -150 -23 4 callsubr
            543 7 callsubr
            -172 24 rlineto
            405 vlineto
            144 -1 rlineto
            171 131 -537 174 hhcurveto
            231 -56 callsubr
            -83 24 -100 27 -135 360 -191 99 rlinecurve
            307 383 148 28 rlineto
            107 -479 -107 vlineto
            146 -27 -256 -358 rlineto
            -208 356 hlineto
            163 29 -1 107 rlineto
            -525 -107 hlineto
            142 -28 rlineto
            -357 -209 vlineto
            -256 358 147 27 rlineto
            107 -479 -107 vlineto
            149 -28 305 -382 -190 -99 -134 -357 -102 -31 rlinecurve
            -82 -24 rlineto
            endchar
          </CharString>
          <CharString index="27">
            -8 19 57 -7 41 hhcurveto
            236 102 161 315 125 hvcurveto
            31 71 117 342 202 627 rrcurveto
            return
          </CharString>
          <CharString index="28">
            -78 callgsubr
            endchar
          </CharString>
          <CharString index="29">
            rmoveto
            -318 108 -124 247 145 142 88 71 73 vhcurveto
            -52 vlineto
            -79 43 -28 82 84 67 22 14 47 vhcurveto
            return
          </CharString>
          <CharString index="30">
            -107 callsubr
            endchar
          </CharString>
          <CharString index="31">
            vvcurveto
            460 -219 302 -436 -395 -297 -307 -482 return
          </CharString>
          <CharString index="32">
            -155 -70 21 102 46 24 46 36 32 hvcurveto
            -11 46 51 -6 56 hhcurveto
            1 hlineto
            269 205 165 245 62 -13 53 -22 46 hvcurveto
            210 194 -54 hlineto
            -123 -80 -66 -33 -28 hvcurveto
            return
          </CharString>
          <CharString index="33">
            301 rmoveto
            -225 164 -99 181 209 143 127 91 64 vhcurveto
            -136 83 141 -82 199 hhcurveto
            167 172 75 77 75 hvcurveto
            -42 96 rlineto
            -47 -60 -130 -47 -114 hhcurveto
            hintmask 0110011110000000
            109 callgsubr
            694 hlineto
            10 48 2 63 85 vvcurveto
            265 -10 -145 143 -255 hhcurveto
            -150 -129 -55 -96 -94 hvcurveto
            hintmask 0101101110000000
            101 -52 -102 43 -179 hhcurveto
            -193 -226 -112 -47 -54 hvcurveto
            50 -102 rlineto
            42 90 127 55 150 hhcurveto
            176 42 -68 -179 hvcurveto
            -61 vlineto
            hintmask 0101011110000000
            -339 -6 -325 -101 -281 vvcurveto
            hintmask 1010011110000000
            912 379 rmoveto
            283 13 103 84 136 hhcurveto
            159 57 -126 -155 1 hvcurveto
            -25 -1 -34 -2 -27 vhcurveto
            -1130 -348 rmoveto
            hintmask 1001011110000000
            131 118 117 298 1 vhcurveto
            -2 vlineto
            7 -5 rlineto
            -3 vlineto
            -106 15 -95 31 -83 vhcurveto
            -69 -41 -116 -90 -122 hhcurveto
            hintmask 1010011110000000
            -108 -82 54 150 hvcurveto
            endchar
          </CharString>
          <CharString index="34">
            -53 -294 -61 294 -274 947 192 -68 callsubr
            151 callsubr
            141 -26 56 -176 -229 -771 -61 -271 -52 271 -279 946 183 27 -61 callgsubr
            -559 -67 callgsubr
            134 -27 rlineto
            return
          </CharString>
          <CharString index="35">
            rmoveto
            -148 -26 rlineto
            -106 503 106 vlineto
            -152 24 122 304 rlineto
            517 -304 hlineto
            -170 -23 rlineto
            -107 1142 vlineto
            75 360 -132 38 -126 -252 -556 -23 rlineto
            597 vlineto
            324 -5 30 -171 rlineto
            127 468 -127 hlineto
            -30 -165 -324 -6 rlineto
            568 vlineto
            480 -12 66 -195 rlineto
            127 hlineto
            -31 320 rlineto
            -1427 -109 hlineto
            264 -25 rlineto
            -176 -824 rmoveto
            232 576 rlineto
            return
          </CharString>
          <CharString index="36">
            rmoveto
            180 hlineto
            283 398 -83 60 -289 -283 -284 282 -89 -60 rlineto
            return
          </CharString>
          <CharString index="37">
            -25 callsubr
            80 68 -331 311 rlineto
            -1 hlineto
            -152 -127 69 -96 242 -127 92 -29 rlinecurve
            return
          </CharString>
          <CharString index="38">
            -288 -705 rmoveto
            86 29 60 35 43 vhcurveto
            -8 45 52 -5 58 hhcurveto
            201 hlineto
            201 41 -57 -121 -159 -182 -83 -174 hvcurveto
            -2 hlineto
            -223 -81 90 154 hvcurveto
            return
          </CharString>
          <CharString index="39">
            26 -61 callgsubr
            return
          </CharString>
          <CharString index="40">
            68 -46 69 -86 vhcurveto
            -1 hlineto
            -98 81 callsubr
            return
          </CharString>
          <CharString index="41">
            109 -109 return
          </CharString>
          <CharString index="42">
            -96 callsubr
            endchar
          </CharString>
          <CharString index="43">
            -104 callgsubr
            endchar
          </CharString>
          <CharString index="44">
            166 hintmask 00000000
            hintmask 10101010
            184 643 -58 callsubr
            hintmask 11001010
            766 vlineto
            hintmask 10101010
            -18 callsubr
            hintmask 11001010
            -84 callsubr
            hintmask 10101010
            -17 callgsubr
            hintmask 11001010
            144 -26 rlineto
            return
          </CharString>
          <CharString index="45">
            -265 -23 133 -133 151 450 113 304 166 return
          </CharString>
          <CharString index="46">
            rmoveto
            673 106 hlineto
            -227 23 rlineto
            881 vlineto
            -114 18 rlineto
            -4 hlineto
            -115 -89 -128 -45 -110 -33 29 -115 rcurveline
            72 13 96 20 82 31 rrcurveto
            -681 vlineto
            -254 -23 rlineto
            return
          </CharString>
          <CharString index="47">
            -55 callsubr
            63 callsubr
            26 280 -11 236 -5 280 -43 callgsubr
            hintmask 0011000100000000
            112 hmoveto
            605 hlineto
            hintmask 1001000100000000
            106 vlineto
            hintmask 0011000100000000
            -97 callgsubr
            hintmask 0101000100000000
            -183 -24 rlineto
            -43 callgsubr
            540 1578 -39 callgsubr
            hintmask 0000011000000000
            -67 callsubr
            hintmask 0000101000000000
            96 callsubr
          </CharString>
          <CharString index="48">
            100 hmoveto
            572 -56 callsubr
            -172 24 rlineto
            581 700 -582 vlineto
            -163 -23 4 callsubr
            558 7 callsubr
            -160 23 rlineto
            1254 vlineto
            160 -23 callgsubr
            -559 126 callgsubr
            rlineto
            -540 -700 540 vlineto
            172 25 102 callsubr
            159 -26 rlineto
            -1252 vlineto
            -165 -24 rlineto
            return
          </CharString>
          <CharString index="49">
            rmoveto
            -456 178 -203 414 314 238 194 441 vhcurveto
            return
          </CharString>
          <CharString index="50">
            259 hintmask 11010100
            -53 callgsubr
            return
          </CharString>
          <CharString index="51">
            109 hlineto
            return
          </CharString>
          <CharString index="52">
            -586 -49 callsubr
            return
          </CharString>
          <CharString index="53">
            -85 -35 callsubr
            132 432 118 703 -29 callgsubr
            -101 115 -14 -20 hstemhm
            266 234 525 252 -43 callgsubr
            hintmask 1010010110000000
            98 hmoveto
            673 -56 callsubr
            hintmask 0110010110000000
            -270 23 rlineto
            441 vlineto
            -4 18 89 -5 75 hhcurveto
            344 250 196 338 100 callsubr
            hvcurveto
            hintmask 1010001110000000
            -174 -53 -14 -126 hhcurveto
            -247 hlineto
            hintmask 1010100110000000
            -67 callgsubr
            hintmask 0111000110000000
            157 39 callsubr
            hintmask 1010010110000000
            -168 -23 rlineto
            402 582 rmoveto
            717 vlineto
            1 47 40 12 92 hhcurveto
            233 113 -91 -234 -322 -165 -92 -177 113 callsubr
          </CharString>
          <CharString index="54">
            rmoveto
            -45 -143 -119 -103 -95 -25 57 -92 rcurveline
            189 39 211 131 53 244 rrcurveto
            27 121 -3 179 219 vvcurveto
            return
          </CharString>
          <CharString index="55">
            -496 108 365 114 924 153 -4 -20 hstemhm
            215 227 523 245 hintmask 00000000
            hintmask 11101100
            66 -388 rmoveto
            -108 581 108 vlineto
            -205 22 rlineto
            198 vlineto
            -6 170 rlineto
            -13 47 80 -12 63 hhcurveto
            362 222 285 347 38 callsubr
            hvcurveto
            hintmask 11011100
            114 vlineto
            -45 104 callsubr
            -40 rlineto
            -120 vlineto
            143 -40 rlineto
            -1329 vlineto
            227 519 rmoveto
            hintmask 11101100
            764 vlineto
            44 41 85 53 103 hhcurveto
            165 133 -130 -310 -4 hvcurveto
            -347 -4 -145 -137 -183 hhcurveto
            hintmask 11011100
            -94 -79 32 31 -18 hvcurveto
            endchar
          </CharString>
          <CharString index="56">
            329 726 rmoveto
            -456 7 242 -293 373 hhcurveto
            286 130 74 5 115 hvcurveto
            8 304 -148 3 -42 -150 rlineto
            -61 -51 -84 -57 -177 hhcurveto
            -218 -196 216 406 -10 hvcurveto
            3 -1 4 4 vvcurveto
            955 -1 rlineto
            11 48 3 75 86 vvcurveto
            393 -4 -223 209 -307 hhcurveto
            -346 -278 -269 -420 -40 hvcurveto
            -132 2 -28 58 52 vvcurveto
            34 28 83 17 19 vhcurveto
            -167 28 rlineto
            -22 -14 -46 -86 -77 vvcurveto
            -153 161 -67 184 -2 vhcurveto
            233 123 rmoveto
            413 9 170 147 208 hhcurveto
            255 87 -257 -203 3 hvcurveto
            -34 -2 -33 -4 -33 vhcurveto
            return
          </CharString>
          <CharString index="57">
            rmoveto
            62 57 63 182 174 vvcurveto
            105 -26 103 -37 37 vhcurveto
            -168 -40 -14 -40 rlineto
            23 -30 30 -104 -124 vvcurveto
            -93 -10 -88 -23 -81 vhcurveto
            4 -24 rlineto
            endchar
          </CharString>
          <CharString index="58">
            0 -48 callgsubr
            return
          </CharString>
          <CharString index="59">
            -23 139 -139 53 callsubr
            -19 -20 hstemhm
            85 105 callsubr
            hintmask 00000000
            hintmask 01101100
            531 -23 -30 callgsubr
            hintmask 10011100
            -31 callgsubr
            hintmask 01101100
            -92 callsubr
            endchar
          </CharString>
          <CharString index="60">
            -25 callsubr
            179 154 102 181 2 hvcurveto
            159 1 -110 121 -211 hhcurveto
            -1 hlineto
            -170 -172 -98 -176 -3 hvcurveto
            -161 -2 103 -128 229 hhcurveto
            6 106 rmoveto
            -123 -54 87 96 101 56 64 122 hvcurveto
            1 hlineto
            123 48 -82 -96 -112 -48 -58 -124 hvcurveto
            return
          </CharString>
          <CharString index="61">
            -25 callsubr
            181 152 90 162 2 hvcurveto
            149 1 -107 108 -215 hhcurveto
            -1 hlineto
            -174 -167 -86 -165 -3 hvcurveto
            -142 -3 101 -116 232 hhcurveto
            5 99 rmoveto
            -123 -51 77 82 95 53 56 122 hvcurveto
            1 hlineto
            123 47 -74 -90 -93 -47 -53 -124 hvcurveto
            endchar
          </CharString>
          <CharString index="62">
            -83 67 -53 73 90 77 62 97 72 -45 64 -97 -83 -82 -67 -92 vhcurveto
            return
          </CharString>
          <CharString index="63">
            317 -183 rmoveto
            108 -33 90 218 64 -17 71 -9 77 1 rlinecurve
            158 callgsubr
            332 -114 250 -228 113 vhcurveto
            85 211 -106 36 -80 -208 rlineto
            18 -64 -71 10 -77 hhcurveto
            -395 -297 -307 -482 -333 117 -258 228 -116 hvcurveto
            79 158 rmoveto
            -106 110 -58 192 248 vvcurveto
            457 164 214 251 66 60 -16 -30 51 vhcurveto
            -350 -1237 rmoveto
            428 1174 rlineto
            102 -108 56 -186 -243 vvcurveto
            -456 -164 -225 -250 -65 -57 15 29 -50 vhcurveto
            return
          </CharString>
          <CharString index="64">
            141 85 106 108 40 hvcurveto
            -98 64 rlineto
            -37 -22 -32 -83 -93 -114 -45 166 -167 hhcurveto
            return
          </CharString>
          <CharString index="65">
            -301 -23 154 433 116 367 121 return
          </CharString>
          <CharString index="66">
            318 567 rmoveto
            -345 1 168 -245 343 hhcurveto
            167 172 75 77 74 hvcurveto
            -41 96 rlineto
            -47 -60 -123 -47 -122 hhcurveto
            -181 -148 126 305 -8 hvcurveto
            2 691 vlineto
            11 48 2 65 -2 85 rrcurveto
            267 -11 -143 139 -255 hhcurveto
            -279 -207 -190 -295 -42 hvcurveto
            -125 6 -25 52 50 vvcurveto
            33 23 76 17 20 vhcurveto
            -165 28 rlineto
            -21 -15 -32 -93 -57 vvcurveto
            -149 144 -62 177 -5 vhcurveto
            242 113 rmoveto
            286 12 103 86 134 hhcurveto
            166 50 -146 -145 -23 -2 -34 -1 -24 hvcurveto
            return
          </CharString>
          <CharString index="67">
            13 callgsubr
            -83 83 hstemhm
            1 2045 129 callsubr
            1 hmoveto
            546 -56 callsubr
            -197 24 81 908 rlineto
            hintmask 10110000
            32 397 111 -385 361 -985 rlineto
            129 hlineto
            326 1097 69 274 44 -399 126 -908 -177 -23 4 callsubr
            594 7 callsubr
            -179 24 rlineto
            hintmask 11010000
            -194 1252 222 -68 callsubr
            -546 vlineto
            -277 -917 -45 -230 -52 230 -314 917 rlineto
            -546 -111 hlineto
            214 -25 -150 -1254 -178 -23 rlineto
            endchar
          </CharString>
          <CharString index="68">
            -90 151 152 -576 104 hhcurveto
            296 108 hlineto
            -78 24 -104 25 -135 451 -174 99 rlinecurve
            192 59 107 186 183 vvcurveto
            269 -147 133 -408 vhcurveto
            return
          </CharString>
          <CharString index="69">
            rmoveto
            -38 82 109 -20 112 hhcurveto
            306 148 146 179 117 -108 125 -214 -21 hvcurveto
            return
          </CharString>
          <CharString index="70">
            -74 0 135 584 126 556 120 return
          </CharString>
          <CharString index="71">
            -25 callsubr
            104 49 71 88 hvcurveto
            return
          </CharString>
          <CharString index="72">
            0 -66 callsubr
            return
          </CharString>
          <CharString index="73">
            -264 -189 -255 189 -91 -61 rlineto
            return
          </CharString>
          <CharString index="74">
            44 170 44 -168 214 -657 rlineto
            return
          </CharString>
          <CharString index="75">
            rmoveto
            95 53 140 98 93 106 -145 120 rcurveline
            -278 -295 rlineto
            601 -82 rmoveto
            100 53 152 106 81 96 -134 120 rcurveline
            -294 -293 rlineto
            endchar
          </CharString>
          <CharString index="76">
            rmoveto
            59 -98 rlineto
            1084 hlineto
            48 440 -130 26 -113 -310 -673 -39 128 138 rlineto
            return
          </CharString>
          <CharString index="77">
            -15 -30 142 -133 151 1030 -20 hstemhm
            246 227 463 227 hintmask 00000000
            hintmask 01111000
            246 -373 rmoveto
            210 440 hlineto
            -52 55 85 -36 101 hhcurveto
            128 100 79 83 43 hvcurveto
            hintmask 10111000
            -76 vlineto
            -61 36 -34 72 70 95 20 19 41 vhcurveto
            103 -119 1022 vlineto
            -32 26 -325 -27 rlineto
            -83 vlineto
            130 -49 rlineto
            -740 vlineto
            hintmask 01111000
            -55 -27 -71 -76 -132 hhcurveto
            -162 -71 144 82 hvcurveto
            777 vlineto
            -43 27 -302 -28 rlineto
            -81 vlineto
            118 -50 rlineto
            endchar
          </CharString>
          <CharString index="78">
            144 84 109 106 40 hvcurveto
            -98 62 rlineto
            -35 -19 -37 -82 -92 -113 -44 166 -166 hhcurveto
            return
          </CharString>
          <CharString index="79">
            -510 186 -150 -21 516 -21 1031 106 return
          </CharString>
          <CharString index="80">
            -168 -22 rlineto
            402 677 rmoveto
            622 vlineto
            2 32 41 10 99 hhcurveto
            254 72 -126 -175 -228 -105 -107 -167 -46 -134 -3 5 -46 hvcurveto
            return
          </CharString>
          <CharString index="81">
            271 rmoveto
            -208 226 -83 200 223 185 117 184 -4 vhcurveto
            -1 127 -102 71 -120 55 rrcurveto
            return
          </CharString>
          <CharString index="82">
            rmoveto
            1 hlineto
            return
          </CharString>
          <CharString index="83">
            119 63 -102 callgsubr
            return
          </CharString>
          <CharString index="84">
            187 26 rlineto
            110 151 callsubr
            161 30 callsubr
            -168 -25 rlineto
            return
          </CharString>
          <CharString index="85">
            rmoveto
            -393 4 222 -209 307 hhcurveto
            374 296 308 486 469 -245 298 -377 -286 -128 -74 -5 -115 hvcurveto
            -10 -304 147 -3 43 156 rlineto
            57 49 90 55 168 hhcurveto
            221 191 -216 -406 13 hvcurveto
            -7 -951 vlineto
            -11 -48 -2 -69 -95 vvcurveto
            239 -21 rmoveto
            38 2 33 4 37 vhcurveto
            721 hlineto
            -407 -9 -158 -151 -216 hhcurveto
            -247 -97 248 202 hvcurveto
            endchar
          </CharString>
          <CharString index="86">
            329 412 125 26 rlineto
            106 -441 -106 vlineto
            147 -26 -184 -247 -51 -89 -59 90 -176 246 138 26 rlineto
            106 -530 -106 vlineto
            118 -26 338 -437 -347 -443 -137 -19 rlineto
            endchar
          </CharString>
          <CharString index="87">
            54 callsubr
            vlineto
            return
          </CharString>
          <CharString index="88">
            rmoveto
            66 38 63 63 34 vhcurveto
            159 -72 179 -42 -120 vvcurveto
            -92 -102 -65 -99 -153 -85 96 132 vhcurveto
            return
          </CharString>
          <CharString index="89">
            148 -68 callsubr
            -479 -67 callgsubr
            return
          </CharString>
          <CharString index="90">
            rmoveto
            -82 callgsubr
            hintmask 10100000
            536 hmoveto
            -82 callgsubr
            endchar
          </CharString>
          <CharString index="91">
            -35 callsubr
            117 -117 126 865 144 29 -20 364 80 callgsubr
            return
          </CharString>
          <CharString index="92">
            592 108 hlineto
            -188 24 rlineto
            380 vlineto
            199 229 rlineto
            -188 169 215 -553 99 hhcurveto
            307 108 hlineto
            -90 25 -80 16 -288 581 -194 170 rlinecurve
            429 486 156 26 rlineto
            110 -510 vlineto
            1 -111 165 -25 -578 -701 rlineto
            700 vlineto
            162 26 rlineto
            111 -562 147 callsubr
            154 callsubr
            endchar
          </CharString>
          <CharString index="93">
            -111 111 return
          </CharString>
          <CharString index="94">
            142 callsubr
            -585 -67 callgsubr
            174 -25 rlineto
            -577 vlineto
            -47 -63 -118 -29 -104 hhcurveto
            -219 -48 32 355 hvcurveto
            return
          </CharString>
          <CharString index="95">
            -240 -49 callgsubr
            return
          </CharString>
          <CharString index="96">
            282 -457 -120 -19 rlineto
            -108 501 7 callsubr
            -120 17 -392 591 291 284 157 34 rlineto
            102 -509 -102 vlineto
            161 -29 -446 -465 4 114 rlineto
            return
          </CharString>
          <CharString index="97">
            384 rmoveto
            130 91 44 39 81 hvcurveto
            -334 vlineto
            -179 61 callsubr
            547 7 callsubr
            -144 23 rlineto
            869 vlineto
            136 29 rlineto
            107 -509 -107 vlineto
            149 -29 rlineto
            -415 vlineto
            -26 -44 -75 -36 -134 hhcurveto
            -206 -41 63 303 hvcurveto
            112 vlineto
            136 28 rlineto
            107 -488 -107 vlineto
            122 -29 rlineto
            -195 vlineto
            -327 162 -95 266 vhcurveto
            return
          </CharString>
          <CharString index="98">
            77 551 -99 callsubr
            return
          </CharString>
          <CharString index="99">
            67 callgsubr
            -516 -110 vlineto
            149 -25 rlineto
            -176 vlineto
            -182 return
          </CharString>
          <CharString index="100">
            vvcurveto
            -126 -50 -15 -92 vhcurveto
            -1 hlineto
            return
          </CharString>
          <CharString index="101">
            rmoveto
            -336 158 -260 359 275 268 209 386 336 -158 260 -360 -273 -269 -213 -382 vhcurveto
            253 70 rmoveto
            268 10 95 133 172 hhcurveto
            180 79 -167 -234 15 hvcurveto
            -274 -542 rmoveto
            -188 -80 184 256 -9 hvcurveto
            554 hlineto
            -295 -3 -94 -145 -180 hhcurveto
            endchar
          </CharString>
          <CharString index="102">
            227 515 rmoveto
            88 84 61 103 116 83 -70 -111 -57 -35 -76 -71 -45 vhcurveto
            -143 56 -137 50 104 vvcurveto
            return
          </CharString>
          <CharString index="103">
            rmoveto
            89 55 231 183 66 106 -145 124 rcurveline
            -317 -405 rlineto
            561 -63 rmoveto
            94 54 240 194 55 96 -138 121 rcurveline
            -327 -401 rlineto
            return
          </CharString>
          <CharString index="104">
            1584 5 callsubr
          </CharString>
          <CharString index="105">
            195 1003 rmoveto
            -487 384 -392 486 485 384 392 487 485 -384 390 -485 -486 -384 -390 -485 vhcurveto
            136 hmoveto
            412 316 346 418 416 316 -345 -413 -414 -316 -346 -416 -417 -317 346 414 vhcurveto
            return
          </CharString>
          <CharString index="106">
            146 26 rlineto
            113 -535 -113 vlineto
            158 -27 rlineto
            -343 vlineto
            -190 return
          </CharString>
          <CharString index="107">
            296 -275 -21 hstemhm
            return
          </CharString>
          <CharString index="108">
            rmoveto
            394 7 292 311 482 -76 callsubr
            -462 226 -318 435 7 vhcurveto
            return
          </CharString>
          <CharString index="109">
            35 169 rlineto
            28 23 78 42 128 hhcurveto
            169 51 -64 -105 -117 -84 -76 -165 -21 hvcurveto
            -74 -8 -1 -135 rlineto
            2 8 98 13 7 hhcurveto
            return
          </CharString>
          <CharString index="110">
            -67 callsubr
            hintmask 00010100
            33 callsubr
            return
          </CharString>
          <CharString index="111">
            rlineto
            -109 return
          </CharString>
          <CharString index="112">
            -89 callgsubr
            endchar
          </CharString>
          <CharString index="113">
            33 22 43 86 91 123 52 -167 165 hhcurveto
            return
          </CharString>
          <CharString index="114">
            109 vlineto
            return
          </CharString>
          <CharString index="115">
            119 546 129 651 117 return
          </CharString>
          <CharString index="116">
            -128 -17 4 callsubr
            502 7 callsubr
            return
          </CharString>
          <CharString index="117">
            -91 callgsubr
            endchar
          </CharString>
          <CharString index="118">
            -71 callsubr
            endchar
          </CharString>
          <CharString index="119">
            rmoveto
            34 21 43 83 91 123 49 -167 164 hhcurveto
            return
          </CharString>
          <CharString index="120">
            126 -107 107 hstemhm
            352 125 328 226 hintmask 00000000
            hintmask 01101100
            32 hmoveto
            hintmask 10101100
            -6 23 38 -7 36 hhcurveto
            142 45 59 81 39 hvcurveto
            59 112 63 277 383 vvcurveto
            112 328 vlineto
            hintmask 01011100
            -884 vlineto
            -154 -18 4 callsubr
            return
          </CharString>
          <CharString index="121">
            6 -15 -21 5 -30 hhcurveto
            -214 -144 -196 -40 -22 hvcurveto
            -2 hlineto
            2 130 rlineto
            return
          </CharString>
          <CharString index="122">
            204 2 56 -96 -125 vvcurveto
            -122 -81 -91 -195 -83 -103 18 42 -36 vhcurveto
            -35 140 rlineto
            -137 hlineto
            endchar
          </CharString>
          <CharString index="123">
            -29 callgsubr
            -103 118 -15 -20 39 callgsubr
            return
          </CharString>
          <CharString index="124">
            rmoveto
            558 158 -558 hlineto
            endchar
          </CharString>
          <CharString index="125">
            vstem
            14 hmoveto
            485 106 hlineto
            -165 20 185 266 51 89 63 -92 180 -264 -131 -19 rlineto
            -106 return
          </CharString>
          <CharString index="126">
            1687 -36 callsubr
            return
          </CharString>
          <CharString index="127">
            hintmask 10110000
            27 callsubr
            hintmask 01001000
            return
          </CharString>
          <CharString index="128">
            356 1 163 hstem
            145 1479 vstem
            145 26 rmoveto
            17 -25 rlineto
            1443 hlineto
            19 29 -751 1486 rlineto
            -37 hlineto
            -470 -1352 rmoveto
            449 1000 491 -1000 rlineto
            endchar
          </CharString>
          <CharString index="129">
            880 -25 callsubr
            68 50 45 79 hvcurveto
            124 -136 13 180 vvcurveto
            187 88 105 46 37 vhcurveto
            24 vlineto
            -62 61 rlineto
            -2 hlineto
            -93 -50 -166 -197 -268 vvcurveto
            -175 91 -165 115 vhcurveto
            return
          </CharString>
          <CharString index="130">
            168 rmoveto
            -135 118 14 -145 vvcurveto
            -150 -78 -84 -49 -40 vhcurveto
            -24 vlineto
            67 -55 rlineto
            2 hlineto
            110 58 139 205 238 vvcurveto
            158 -65 96 -100 vhcurveto
            -12 hlineto
            -70 -62 -53 -83 hvcurveto
            return
          </CharString>
          <CharString index="131">
            -90 -50 -66 -88 -103 vvcurveto
            -79 35 -54 62 -35 vhcurveto
            return
          </CharString>
          <CharString index="132">
            vstem
            100 hmoveto
            541 -56 callsubr
            -169 17 rlineto
            402 553 -401 vlineto
            -169 -18 4 callsubr
            return
          </CharString>
          <CharString index="133">
            184 -136 179 386 165 -155 207 return
          </CharString>
          <CharString index="134">
            98 hmoveto
            -80 callgsubr
            return
          </CharString>
          <CharString index="135">
            145 119 94 95 55 hvcurveto
            -84 95 rlineto
            -55 -47 -64 -55 -97 -122 -70 165 -181 hhcurveto
            return
          </CharString>
          <CharString index="136">
            329 -19 58 -294 rlineto
            138 hlineto
            -10 426 rlineto
            -889 hlineto
            return
          </CharString>
          <CharString index="137">
            -26 rlineto
            -1251 vlineto
            return
          </CharString>
          <CharString index="138">
            27 0 144 callsubr
            535 118 603 135 137 callsubr
            -102 117 return
          </CharString>
          <CharString index="139">
            -67 callgsubr
            163 30 callsubr
            -163 -25 rlineto
            endchar
          </CharString>
          <CharString index="140">
            -75 50 -61 75 vhcurveto
            return
          </CharString>
          <CharString index="141">
            140 29 rlineto
            107 -529 -107 vlineto
            164 -28 rlineto
            -349 -553 348 vlineto
            163 43 callsubr
            114 callgsubr
          </CharString>
          <CharString index="142">
            111 -1183 vlineto
            hintmask 10011100
            -67 callgsubr
            235 -26 rlineto
            -158 vlineto
            -598 -61 -220 -82 -145 vhcurveto
            -64 -34 -39 -26 -56 hhcurveto
            -90 -44 6 2 -26 hvcurveto
            endchar
          </CharString>
          <CharString index="143">
            -23 151 -151 154 433 116 -99 108 308 164 -114 121 return
          </CharString>
          <CharString index="144">
            rmoveto
            234 hlineto
            351 952 -39 47 rlineto
            -726 hlineto
            -44 -316 127 -20 69 200 433 1 -122 -291 -126 -273 -157 -300 rlinecurve
            return
          </CharString>
          <CharString index="145">
            395 -213 164 -233 -163 -117 -83 -74 -67 return
          </CharString>
          <CharString index="146">
            -26 -20 callsubr
            return
          </CharString>
          <CharString index="147">
            224 -186 236 -185 187 return
          </CharString>
          <CharString index="148">
            111 45 callgsubr
            return
          </CharString>
          <CharString index="149">
            130 28 rlineto
            107 -465 -107 vlineto
            168 -29 -274 -728 -24 -74 -24 72 -269 731 166 28 rlineto
            107 -544 -107 vlineto
            119 -29 return
          </CharString>
          <CharString index="150">
            29 rlineto
            107 -534 -107 vlineto
            146 127 callsubr
            return
          </CharString>
          <CharString index="151">
            60 callsubr
            498 -66 callsubr
            126 return
          </CharString>
          <CharString index="152">
            100 hmoveto
            587 -56 callsubr
            -188 25 rlineto
            1257 625 -1257 vlineto
            -165 -25 4 callsubr
            589 7 callsubr
            -192 24 rlineto
            return
          </CharString>
          <CharString index="153">
            109 1277 136 -14 callsubr
            return
          </CharString>
          <CharString index="154">
            -153 -107 -125 -89 -27 hvcurveto
            endchar
          </CharString>
          <CharString index="155">
            -226 137 -192 229 209 193 153 277 234 -111 188 -256 -213 -188 -157 -277 vhcurveto
            return
          </CharString>
          <CharString index="156">
            199 175 147 vlineto
            -175 -9 rlineto
            262 vlineto
            -170 -13 rlineto
            return
          </CharString>
          <CharString index="157">
            7 callgsubr
            503 -66 callsubr
            return
          </CharString>
          <CharString index="158">
            -279 -10 -103 -32 -108 vhcurveto
            return
          </CharString>
          <CharString index="159">
            -153 -107 -124 -89 -27 hvcurveto
            return
          </CharString>
          <CharString index="160">
            154 919 118 return
          </CharString>
          <CharString index="161">
            rlineto
            -1253 return
          </CharString>
          <CharString index="162">
            180 59 126 124 121 55 -139 -175 -180 -60 -124 -124 -119 -56 148 164 vhcurveto
            endchar
          </CharString>
          <CharString index="163">
            105 0 115 887 160 callgsubr
            return
          </CharString>
          <CharString index="164">
            119 1322 120 return
          </CharString>
          <CharString index="165">
            -16 117 -101 106 -106 144 callsubr
            -131 133 661 129 467 132 -14 callsubr
            -102 102 return
          </CharString>
          <CharString index="166">
            -115 -90 -15 -110 hhcurveto
            -275 -109 hlineto
            return
          </CharString>
          <CharString index="167">
            -498 116 -95 -21 return
          </CharString>
          <CharString index="168">
            -24 4 callsubr
            return
          </CharString>
          <CharString index="169">
            -6 26 59 -6 56 hhcurveto
            110 81 45 109 61 hvcurveto
            100 173 61 358 532 vvcurveto
            181 393 vlineto
            return
          </CharString>
          <CharString index="170">
            165 0 callsubr
            return
          </CharString>
          <CharString index="171">
            498 0 109 -108 108 429 107 385 107 return
          </CharString>
          <CharString index="172">
            135 hstemhm
            591 206 -117 209 return
          </CharString>
          <CharString index="173">
            -68 callsubr
            -562 -67 callgsubr
            return
          </CharString>
          <CharString index="174">
            188 -26 rlineto
            -900 vlineto
            return
          </CharString>
          <CharString index="175">
            -107 vlineto
            148 127 callsubr
            -152 -17 rlineto
            endchar
          </CharString>
          <CharString index="176">
            12 callgsubr
            -547 vlineto
            return
          </CharString>
          <CharString index="177">
            117 498 117 30 -20 hstemhm
            108 205 359 203 358 205 359 204 return
          </CharString>
          <CharString index="178">
            rmoveto
            53 49 68 57 93 131 63 -166 177 hhcurveto
            return
          </CharString>
          <CharString index="179">
            hstemhm
            264 235 return
          </CharString>
          <CharString index="180">
            -314 rmoveto
            83 callgsubr
            return
          </CharString>
          <CharString index="181">
            89 hmoveto
            615 108 hlineto
            -217 18 rlineto
            865 275 144 -275 vlineto
            -1 173 rlineto
            return
          </CharString>
          <CharString index="182">
            55 callgsubr
            endchar
          </CharString>
          <CharString index="183">
            16 callsubr
            hintmask 0000000000000000
            return
          </CharString>
          <CharString index="184">
            125 -108 108 hstemhm
            275 238 hintmask 00000000
            return
          </CharString>
          <CharString index="185">
            117 432 119 callsubr
            return
          </CharString>
          <CharString index="186">
            -29 callgsubr
            hstemhm
            return
          </CharString>
          <CharString index="187">
            -93 -47 -93 -104 -132 vvcurveto
            return
          </CharString>
          <CharString index="188">
            -49 -75 -85 hvcurveto
            return
          </CharString>
          <CharString index="189">
            -55 callsubr
            132 -21 89 -21 hstemhm
            return
          </CharString>
          <CharString index="190">
            0 133 1278 111 hstem
            266 231 517 227 509 232 return
          </CharString>
          <CharString index="191">
            47 callgsubr
            1265 124 return
          </CharString>
          <CharString index="192">
            125 377 107 hstem
            141 callgsubr
            return
          </CharString>
          <CharString index="193">
            193 30 rlineto
            102 -590 -102 vlineto
            return
          </CharString>
          <CharString index="194">
            -364 96 callgsubr
            return
          </CharString>
          <CharString index="195">
            148 -127 -21 hstemhm
            return
          </CharString>
          <CharString index="196">
            hstemhm
            266 233 return
          </CharString>
          <CharString index="197">
            -21 89 -21 hstemhm
            return
          </CharString>
          <CharString index="198">
            rmoveto
            141 hlineto
            48 754 rlineto
            -235 hlineto
            return
          </CharString>
          <CharString index="199">
            1578 -36 callsubr
            return
          </CharString>
          <CharString index="200">
            -94 -153 hhcurveto
            -120 -124 145 hlineto
            return
          </CharString>
          <CharString index="201">
            111 132 359 hstemhm
            return
          </CharString>
          <CharString index="202">
            -136 -55 -65 -87 -96 vvcurveto
            return
          </CharString>
          <CharString index="203">
            33 callsubr
            endchar
          </CharString>
          <CharString index="204">
            112 -582 -109 vlineto
            163 -26 rlineto
            -876 vlineto
            -172 -26 rlineto
            return
          </CharString>
          <CharString index="205">
            rlineto
            64 -76 -115 36 -134 hhcurveto
            -277 -235 -209 -308 hvcurveto
            return
          </CharString>
          <CharString index="206">
            107 260 rlineto
            125 -836 hlineto
            endchar
          </CharString>
          <CharString index="207">
            277 -133 161 -435 return
          </CharString>
          <CharString index="208">
            159 callsubr
            -1256 vlineto
            return
          </CharString>
          <CharString index="209">
            -61 callgsubr
            -566 -67 callgsubr
            return
          </CharString>
          <CharString index="210">
            780 1177 rlineto
            return
          </CharString>
          <CharString index="211">
            39 rlineto
            -5 hlineto
            -295 return
          </CharString>
          <CharString index="212">
            246 525 227 return
          </CharString>
          <CharString index="213">
            -25 callsubr
            105 return
          </CharString>
          <CharString index="214">
            235 -110 187 -256 -214 -187 -156 -278 vhcurveto
            return
          </CharString>
          <CharString index="215">
            134 callsubr
            234 return
          </CharString>
          <CharString index="216">
            69 rmoveto
            -27 75 155 -54 206 hhcurveto
            return
          </CharString>
          <CharString index="217">
            hstemhm
            115 callsubr
            return
          </CharString>
          <CharString index="218">
            248 416 248 469 237 -43 callgsubr
            hintmask 0101011110000000
            return
          </CharString>
          <CharString index="219">
            180 59 126 124 120 55 -139 -175 1 vhcurveto
            return
          </CharString>
          <CharString index="220">
            -94 -52 2 7 -37 hvcurveto
            endchar
          </CharString>
          <CharString index="221">
            146 callgsubr
            endchar
          </CharString>
          <CharString index="222">
            247 225 return
          </CharString>
          <CharString index="223">
            131 -110 110 89 callsubr
            625 232 return
          </CharString>
          <CharString index="224">
            75 callgsubr
            hstemhm
            143 231 return
          </CharString>
          <CharString index="225">
            -548 -186 1966 hstem
            341 183 vstem
            341 return
          </CharString>
          <CharString index="226">
            124 148 301 -62 117 return
          </CharString>
          <CharString index="227">
            804 108 hlineto
            -341 26 rlineto
            return
          </CharString>
          <CharString index="228">
            650 -56 callsubr
            -272 18 rlineto
            return
          </CharString>
          <CharString index="229">
            267 181 99 255 return
          </CharString>
          <CharString index="230">
            0 109 605 132 return
          </CharString>
          <CharString index="231">
            229 494 228 vstem
            return
          </CharString>
          <CharString index="232">
            161 -68 callsubr
            return
          </CharString>
          <CharString index="233">
            123 438 123 return
          </CharString>
          <CharString index="234">
            -29 rlineto
            -875 vlineto
            return
          </CharString>
          <CharString index="235">
            -16 117 -101 144 callsubr
            663 129 return
          </CharString>
          <CharString index="236">
            hintmask 00000000
            hintmask 11010000
            return
          </CharString>
          <CharString index="237">
            165 -26 rlineto
            return
          </CharString>
          <CharString index="238">
            287 123 callsubr
            565 111 return
          </CharString>
          <CharString index="239">
            157 29 rlineto
            107 -547 -107 vlineto
            167 -29 rlineto
            return
          </CharString>
          <CharString index="240">
            hstem
            230 885 vstem
            230 return
          </CharString>
          <CharString index="241">
            88 callsubr
            264 return
          </CharString>
          <CharString index="242">
            hstemhm
            409 192 83 895 return
          </CharString>
          <CharString index="243">
            164 -30 rlineto
            -1259 vlineto
            return
          </CharString>
          <CharString index="244">
            -109 109 return
          </CharString>
          <CharString index="245">
            132 -132 133 874 129 -91 92 return
          </CharString>
          <CharString index="246">
            -540 -281 137 1656 135 hstem
            return
          </CharString>
          <CharString index="247">
            197 387 199 return
          </CharString>
          <CharString index="248">
            108 -108 126 return
          </CharString>
          <CharString index="249">
            179 -68 callsubr
            return
          </CharString>
          <CharString index="250">
            206 376 206 return
          </CharString>
          <CharString index="251">
            -66 callsubr
            131 return
          </CharString>
          <CharString index="252">
            hstemhm
            79 252 return
          </CharString>
          <CharString index="253">
            -23 124 -88 -21 1052 124 -17 -20 return
          </CharString>
          <CharString index="254">
            -67 callgsubr
            -25 callgsubr
            return
          </CharString>
          <CharString index="255">
            -47 -36 3 3 -20 hvcurveto
            5 -123 rlineto
            -10 return
          </CharString>
          <CharString index="256">
            122 hstem
            526 226 vstem
            260 hmoveto
            return
          </CharString>
          <CharString index="257">
            66 260 828 259 return
          </CharString>
          <CharString index="258">
            -578 -67 callgsubr
            return
          </CharString>
          <CharString index="259">
            111 hstemhm
            266 return
          </CharString>
          <CharString index="260">
            122 -106 107 hstemhm
            return
          </CharString>
          <CharString index="261">
            -169 -24 rlineto
            return
          </CharString>
          <CharString index="262">
            233 354 127 hintmask 00000000
            hintmask 11101110
            return
          </CharString>
          <CharString index="263">
            227 13 callgsubr
            return
          </CharString>
          <CharString index="264">
            855 hstem
            220 189 vstem
            426 return
          </CharString>
          <CharString index="265">
            123 614 124 571 118 return
          </CharString>
          <CharString index="266">
            158 -26 rlineto
            return
          </CharString>
          <CharString index="267">
            135 226 return
          </CharString>
        <CharString name=".notdef">
          357 0 252 -231 -21 hstemhm
          177 262 894 260 hintmask 00000000
          hintmask 01110000
          177 hmoveto
          1416 1416 -1416 hlineto
          263 -1029 rmoveto
          343 318 -344 338 114 116 333 -352 328 351 119 -116 -348 -334 348 -343 rlineto
          hintmask 10110000
          -113 -113 -337 353 -324 -353 rlineto
          endchar
        </CharString>
        <CharString name="A">
          -42 callgsubr
          hstemhm
          -34 1482 hintmask 00000000
          hintmask 11011000
          -33 -103 callgsubr
          hintmask 11101000
          -33 callsubr
          endchar
        </CharString>
        <CharString name="AE">
          474 94 callgsubr
          557 122 -119 119 hstemhm
          814 155 callsubr
          -28 132 -72 callsubr
          hintmask 11110110
          99 callsubr
        </CharString>
        <CharString name="AEacute">
          474 94 callgsubr
          560 119 45 callgsubr
          814 233 -221 485 90 127 hintmask 0000110100000000
          906 1633 -96 callsubr
          -43 callgsubr
          -854 -1569 -72 callsubr
          hintmask 1111001010000000
          99 callsubr
        </CharString>
        <CharString name="Aacute">
          -42 callgsubr
          140 90 callsubr
          -30 1482 -881 485 hintmask 00000000
          hintmask 11010010
          -29 -103 callgsubr
          hintmask 11100010
          -33 callsubr
          hintmask 00001101
          -279 1081 -65 callsubr
        </CharString>
        <CharString name="Abreve">
          -42 callgsubr
          129 169 hstemhm
          -30 1482 -1078 126 callsubr
          hintmask 00000000
          hintmask 11010100
          -29 -103 callgsubr
          hintmask 11100100
          -33 callsubr
          hintmask 00001011
          -211 1091 10 callsubr
        </CharString>
        <CharString name="Acircumflex">
          -42 callgsubr
          140 359 hstemhm
          -30 1482 -1100 728 hintmask 00000000
          hintmask 11010100
          -29 -103 callgsubr
          hintmask 11100100
          -33 callsubr
          hintmask 00001010
          -493 1102 -90 callgsubr
        </CharString>
        <CharString name="Adieresis">
          -42 callgsubr
          173 0 callsubr
          -30 1482 -1125 25 callgsubr
          -43 callgsubr
          hintmask 1101001000000000
          -29 -103 callgsubr
          hintmask 1110001000000000
          -33 callsubr
          -43 callgsubr
          23 1135 -39 callgsubr
          hintmask 0000010100000000
          -67 callsubr
          hintmask 0000100100000000
          96 callsubr
        </CharString>
        <CharString name="Agrave">
          -42 callgsubr
          140 90 callsubr
          -30 1482 -1042 484 hintmask 00000000
          hintmask 11010010
          -29 -103 callgsubr
          hintmask 11100010
          -33 callsubr
          hintmask 00001101
          -117 1081 22 callgsubr
        </CharString>
        <CharString name="Amacron">
          -42 callgsubr
          232 158 hstemhm
          -30 1482 -1017 570 hintmask 00000000
          hintmask 11010100
          -29 -103 callgsubr
          hintmask 11100100
          -33 callsubr
          hintmask 00001010
          -495 1194 113 callgsubr
        </CharString>
        <CharString name="Aogonek">
          -3 -511 146 365 -15 callgsubr
          0 -20 hstemhm
          859 207 hintmask 00000000
          hintmask 11101100
          -33 hmoveto
          492 -56 callsubr
          -171 24 91 292 rlineto
          588 hlineto
          95 -292 -163 61 callsubr
          238 vlineto
          -150 -60 -128 -142 -113 vvcurveto
          -142 127 -54 134 84 97 135 callgsubr
          -46 -47 -13 -49 hhcurveto
          -83 -67 33 87 77 95 112 130 56 hvcurveto
          157 -56 callsubr
          -127 24 -497 1401 rlineto
          -238 hlineto
          -493 -1401 -127 -24 rlineto
          453 443 rmoveto
          205 655 rlineto
          hintmask 11110100
          -33 callsubr
          endchar
        </CharString>
        <CharString name="Aring">
          4 0 -15 callgsubr
          -29 99 -70 -20 400 100 hstemhm
          -34 1482 -1069 161 346 159 -43 callgsubr
          hintmask 1100101000000000
          -33 -103 callgsubr
          hintmask 1110001000000000
          -33 callsubr
          hintmask 0001010110000000
          -217 953 -46 callsubr
        </CharString>
        <CharString name="Atilde">
          -42 callgsubr
          170 89 callgsubr
          -30 1482 -1163 858 hintmask 00000000
          hintmask 11010010
          -29 -103 callgsubr
          hintmask 11100010
          -33 callsubr
          hintmask 00000000
          -545 1180 rmoveto
          hintmask 00001001
          6 callsubr
          hintmask 00001101
          -43 callsubr
          hintmask 00001001
          52 callsubr
          endchar
        </CharString>
        <CharString name="B">
          -69 callgsubr
        </CharString>
        <CharString name="C">
          -78 -23 57 callsubr
          hstem
          66 271 vstem
          66 762 -99 callgsubr
          endchar
        </CharString>
        <CharString name="CR">
          -1413 endchar
        </CharString>
        <CharString name="Cacute">
          -78 -23 57 callsubr
          116 90 callsubr
          66 271 301 485 hintmask 11001000
          66 762 -99 callgsubr
          hintmask 00110100
          652 871 -65 callsubr
        </CharString>
        <CharString name="Ccaron">
          -78 -23 57 callsubr
          159 -21 hstemhm
          66 271 102 695 hintmask 11010000
          66 762 -99 callgsubr
          hintmask 00000000
          628 914 -33 callgsubr
          hintmask 00101000
          -34 callsubr
          endchar
        </CharString>
        <CharString name="Ccedilla">
          -78 128 callgsubr
          305 57 callsubr
          hstem
          66 271 425 179 vstem
          533 73 callsubr
          110 -66 106 -47 55 206 5 71 67 103 7 44 306 rcurveline
          -142 19 -87 -211 rlineto
          -34 -32 -61 -40 -138 hhcurveto
          -324 -137 335 355 411 182 221 254 144 83 -26 -35 26 hvcurveto
          56 -255 rlineto
          149 hlineto
          19 374 rlineto
          14 -76 -184 48 -182 hhcurveto
          -417 -325 -293 -483 -456 229 -286 417 -38 hvcurveto
          21 -39 29 -69 -61 118 callgsubr
          endchar
        </CharString>
        <CharString name="Ccircumflex">
          -78 -23 57 callsubr
          116 359 hstemhm
          66 271 82 728 hintmask 11010000
          66 762 -99 callgsubr
          hintmask 00101000
          438 892 -90 callgsubr
        </CharString>
        <CharString name="Cdotaccent">
          -78 -23 57 callsubr
          176 -21 hstemhm
          66 271 304 286 hintmask 00101000
          771 1693 -89 callgsubr
          hintmask 11010000
          -705 -931 -99 callgsubr
          endchar
        </CharString>
        <CharString name="D">
          17 callgsubr
          90 callgsubr
          736 255 hintmask 0000000000000000
          hintmask 0100001011000000
          95 hmoveto
          9 callgsubr
          hintmask 1000001011000000
          -46 callgsubr
          hintmask 1000000111000000
          0 callgsubr
          hintmask 1000010011000000
          -67 callgsubr
          hintmask 0001100011000000
          159 callsubr
          -1252 vlineto
          hintmask 0010001011000000
          154 callsubr
          hintmask 1000001011000000
          403 14 rmoveto
          1283 -79 callgsubr
        </CharString>
        <CharString name="Dcaron">
          17 callgsubr
          174 108 callsubr
          -40 695 81 151 callgsubr
          hintmask 0000000001010000
          713 1676 -33 callgsubr
          hintmask 0000000010010000
          -34 callsubr
          -43 callgsubr
          -363 -1952 rmoveto
          9 callgsubr
          hintmask 0100001000101000
          -46 callgsubr
          hintmask 1000001000101000
          0 callgsubr
          hintmask 1000000100101000
          -67 callgsubr
          hintmask 1000010000101000
          159 callsubr
          -1252 vlineto
          hintmask 0001100000101000
          154 callsubr
          hintmask 0010001000101000
          403 14 rmoveto
          1283 -79 callgsubr
        </CharString>
        <CharString name="Dcroat">
          148 30 callgsubr
          133 583 129 540 -9 callgsubr
          -540 -156 -129 156 -583 116 callgsubr
          593 338 129 -338 561 -79 callgsubr
        </CharString>
        <CharString name="Delta">
          21 callsubr
        </CharString>
        <CharString name="Deltagreek">
          21 callsubr
        </CharString>
        <CharString name="E">
          -37 callsubr
          hstem
          264 235 355 129 vstem
          96 hmoveto
          -106 callgsubr
        </CharString>
        <CharString name="Eacute">
          -37 callsubr
          133 -21 89 104 callgsubr
          50 485 -180 129 hintmask 00011010
          629 1633 -96 callsubr
          hintmask 11100101
          -453 -1701 rmoveto
          -106 callgsubr
        </CharString>
        <CharString name="Ebreve">
          -37 callsubr
          122 169 72 callsubr
          -145 123 377 129 -68 123 hintmask 00010101
          699 1643 -91 callgsubr
          hintmask 11101010
          -603 -1643 rmoveto
          -106 callgsubr
        </CharString>
        <CharString name="Ecaron">
          -37 callsubr
          155 134 callsubr
          235 -146 695 -194 129 hintmask 00000000
          hintmask 00001010
          608 1676 -33 callgsubr
          hintmask 00010010
          -34 callsubr
          hintmask 11100101
          -257 -1952 rmoveto
          -106 callgsubr
        </CharString>
        <CharString name="Ecircumflex">
          -37 callsubr
          133 359 72 callsubr
          -166 728 -207 129 hintmask 11101010
          96 hmoveto
          -106 callsubr
          hintmask 00010100
          322 1545 -90 callgsubr
        </CharString>
        <CharString name="Edieresis">
          -37 callsubr
          166 296 -275 104 callgsubr
          -192 25 callgsubr
          -233 129 -43 callgsubr
          hintmask 0000100100000000
          933 -47 callgsubr
          hintmask 1110010010000000
          -336 -1687 rmoveto
          -106 callgsubr
        </CharString>
        <CharString name="Edotaccent">
          -37 callsubr
          193 104 callgsubr
          55 286 14 129 hintmask 00010100
          684 1693 -89 callgsubr
          hintmask 11101010
          -588 -1693 rmoveto
          -106 callgsubr
        </CharString>
        <CharString name="Egrave">
          -37 callsubr
          133 -21 89 104 callgsubr
          -143 484 14 129 hintmask 00011010
          759 1633 -70 callsubr
          hintmask 11100101
          -663 -1633 rmoveto
          -106 callgsubr
        </CharString>
        <CharString name="Emacron">
          -37 callsubr
          225 158 72 callsubr
          -83 570 -132 129 hintmask 00010100
          416 1746 42 callgsubr
          hintmask 11101010
          -320 -1904 rmoveto
          -106 callgsubr
        </CharString>
        <CharString name="Eng">
          200 0 107 -107 131 1257 134 -108 108 hstemhm
          266 152 856 151 hintmask 00000000
          hintmask 10011100
          99 hmoveto
          507 107 hlineto
          hintmask 01101100
          -188 24 rlineto
          1149 vlineto
          140 -272 637 -983 -13 -37 -18 -36 -20 -30 rlinecurve
          -67 -100 -104 -65 -123 -32 54 -88 rcurveline
          141 16 115 47 115 127 rrcurveto
          76 87 74 116 373 vvcurveto
          985 vlineto
          hintmask 10011100
          168 26 rlineto
          108 -493 -108 vlineto
          hintmask 10101100
          174 -26 rlineto
          -1123 vlineto
          -144 274 rlineto
          hintmask 10011100
          -630 983 rlineto
          -401 -104 hlineto
          hintmask 01101100
          167 -28 rlineto
          -1259 vlineto
          hintmask 10011100
          -167 -24 rlineto
          endchar
        </CharString>
        <CharString name="Eogonek">
          -74 -511 146 365 135 584 126 556 120 72 callsubr
          231 411 -287 129 -5 249 hintmask 00000000
          hintmask 11111001
          96 hmoveto
          921 hlineto
          hintmask 11111100
          -162 -62 -125 -140 -113 vvcurveto
          -142 125 -54 135 vhcurveto
          hintmask 11111001
          84 96 26 43 57 hvcurveto
          110 vlineto
          -20 -45 -48 -13 -48 hhcurveto
          hintmask 11111100
          -83 -65 35 86 84 144 139 134 21 hvcurveto
          15 hlineto
          59 359 -128 38 -113 -251 -550 -22 rlineto
          598 vlineto
          hintmask 11111010
          326 -5 29 -176 rlineto
          129 474 -129 hlineto
          -30 -166 -325 -6 69 callgsubr
          hintmask 11111001
          479 -13 62 -190 rlineto
          hintmask 11111100
          -82 callsubr
          endchar
        </CharString>
        <CharString name="Eth">
          148 30 callgsubr
          133 602 116 534 -9 callgsubr
          -534 -152 -116 152 -602 116 callgsubr
          612 341 116 -341 555 -79 callgsubr
        </CharString>
        <CharString name="Euro">
          145 -28 111 453 122 247 122 401 122 hstem
          280 249 vstem
          77 536 rmoveto
          217 hlineto
          -344 53 203 -220 347 hhcurveto
          262 112 90 4 87 hvcurveto
          23 247 -117 23 -72 -158 rlineto
          -62 -69 -74 -33 -105 hhcurveto
          -252 -114 178 275 -36 hvcurveto
          513 122 -524 hlineto
          -2 36 0 37 39 vvcurveto
          47 1 45 4 43 vhcurveto
          550 122 -535 hlineto
          263 48 131 138 209 hhcurveto
          112 106 -26 -44 40 hvcurveto
          45 -206 rlineto
          125 hlineto
          18 322 rlineto
          14 -83 -125 62 -197 hhcurveto
          -334 -241 -191 -332 -87 hvcurveto
          -218 -122 194 hlineto
          -8 -56 -4 -60 -62 vvcurveto
          -24 0 -23 1 -22 vhcurveto
          -204 hlineto
          endchar
        </CharString>
        <CharString name="F">
          -143 47 callgsubr
          562 131 575 121 72 callsubr
          388 123 110 callgsubr
          99 hmoveto
          704 -56 callsubr
          hintmask 01111100
          14 callgsubr
          hintmask 10111000
          -165 -24 rlineto
          endchar
        </CharString>
        <CharString name="G">
          109 -23 8 callsubr
          hstem
          87 270 771 235 vstem
          87 738 -64 callsubr
        </CharString>
        <CharString name="Gbreve">
          114 -23 8 callsubr
          104 169 hstemhm
          93 270 134 126 callsubr
          -47 235 hintmask 00010110
          842 1643 -91 callgsubr
          hintmask 11101001
          -749 -905 -64 callsubr
        </CharString>
        <CharString name="Gcaron">
          109 -23 8 callsubr
          158 -21 hstemhm
          87 270 133 695 -57 235 hintmask 11101010
          87 738 -104 callgsubr
          hintmask 00000000
          658 938 -33 callgsubr
          hintmask 00010100
          -34 callsubr
          endchar
        </CharString>
        <CharString name="Gcircumflex">
          114 -23 8 callsubr
          115 359 hstemhm
          93 270 113 728 -70 235 hintmask 11101010
          93 738 -104 callgsubr
          hintmask 00010100
          468 916 -90 callgsubr
        </CharString>
        <CharString name="Gcommaaccent">
          116 7 callgsubr
          480 8 callsubr
          hstemhm
          94 270 399 187 185 235 -43 callgsubr
          hintmask 1010000100000000
          678 -218 rmoveto
          -50 17 -23 23 -14 vhcurveto
          21 -14 24 -18 -38 vvcurveto
          -52 -21 -59 -38 -17 vhcurveto
          hintmask 1100000100000000
          -83 callgsubr
          hintmask 1010000100000000
          -38 -84 -19 -89 hvcurveto
          hintmask 0001111010000000
          -584 956 -64 callsubr
        </CharString>
        <CharString name="Gdotaccent">
          114 -23 8 callsubr
          175 -21 hstemhm
          93 270 335 286 150 235 hintmask 00010100
          828 1693 -89 callgsubr
          hintmask 11101010
          -735 -955 -64 callsubr
        </CharString>
        <CharString name="Gtilde">
          109 -23 8 callsubr
          145 89 callgsubr
          87 270 50 858 -137 235 hintmask 11100101
          87 738 -104 callgsubr
          hintmask 00000000
          416 994 rmoveto
          hintmask 00010010
          6 callsubr
          hintmask 00011010
          -43 callsubr
          hintmask 00010010
          52 callsubr
          endchar
        </CharString>
        <CharString name="H">
          131 callsubr
          hstem
          265 235 700 235 vstem
          -59 callsubr
          endchar
        </CharString>
        <CharString name="Hbar">
          286 47 callgsubr
          479 131 280 112 276 152 callgsubr
          233 703 234 hintmask 00000000
          hintmask 01111110
          97 hmoveto
          574 hlineto
          hintmask 10111110
          7 callsubr
          hintmask 01111110
          -173 24 rlineto
          479 703 -479 vlineto
          hintmask 10111110
          -162 -25 rlineto
          hintmask 01111110
          -108 557 vlineto
          hintmask 10111110
          108 vlineto
          -161 26 rlineto
          889 217 112 -217 251 vlineto
          162 -23 callgsubr
          -559 -67 callgsubr
          163 -25 rlineto
          -251 -703 251 vlineto
          172 -23 callgsubr
          -567 -67 callgsubr
          162 -26 rlineto
          -250 -213 -112 213 vlineto
          hintmask 01111110
          -890 vlineto
          hintmask 10111110
          64 callgsubr
          401 634 rmoveto
          280 703 -280 vlineto
          endchar
        </CharString>
        <CharString name="Hcircumflex">
          131 callsubr
          132 359 hstemhm
          265 235 -14 728 -14 235 hintmask 11101010
          -59 callsubr
          hintmask 00010100
          471 1545 -90 callgsubr
        </CharString>
        <CharString name="I">
          -70 callgsubr
        </CharString>
        <CharString name="I.uc">
          -55 callsubr
          192 -21 hstemhm
          273 286 -264 130 callgsubr
          hintmask 00110010
          112 hmoveto
          605 hlineto
          hintmask 10010010
          106 vlineto
          hintmask 00110010
          -97 callgsubr
          hintmask 01010010
          -183 -24 rlineto
          hintmask 00001100
          291 -3 callsubr
        </CharString>
        <CharString name="IJ">
          194 121 callgsubr
          1252 79 callsubr
          295 236 584 233 hintmask 00000000
          hintmask 00101100
          112 hmoveto
          605 hlineto
          hintmask 10001100
          106 vlineto
          hintmask 00101100
          -97 callgsubr
          hintmask 01001100
          -183 -24 rlineto
          hintmask 00000000
          961 -114 -53 callsubr
          hintmask 00001010
          820 vlineto
          hintmask 00010010
          20 callgsubr
          hintmask 00001010
          67 callsubr
          hintmask 00010010
          51 callsubr
          endchar
        </CharString>
        <CharString name="IJ_acutecomb">
          194 -49 callsubr
          127 -21 23 -21 87 -21 23 -21 hstemhm
          112 441 -258 236 21 165 304 485 -390 233 -43 callgsubr
          hintmask 0011010101001000
          301 1630 -25 callsubr
          89 28 237 123 78 101 rrcurveto
          hintmask 0011010101101000
          -153 127 rlineto
          -1 hlineto
          -331 -311 rlineto
          594 -1974 rmoveto
          57 -92 189 39 211 131 53 244 rlinecurve
          27 121 -3 179 219 vvcurveto
          820 vlineto
          20 callgsubr
          67 callsubr
          51 callsubr
          -45 -143 -119 -103 -95 -25 rrcurveto
          hintmask 0011010110001000
          -703 276 rmoveto
          hintmask 0011010101101000
          605 hlineto
          hintmask 1001010101101000
          106 vlineto
          hintmask 0011010101001000
          -97 callgsubr
          hintmask 0101010110001000
          -183 -24 rlineto
          hintmask 0000101000010000
          989 1519 -65 callsubr
        </CharString>
        <CharString name="Iacute">
          82 callsubr
          295 236 -228 485 hintmask 00000000
          hintmask 00110010
          112 hmoveto
          605 hlineto
          hintmask 10010010
          106 vlineto
          hintmask 00110010
          -97 callgsubr
          hintmask 01010010
          -183 -24 rlineto
          hintmask 00001101
          271 1524 -65 callsubr
        </CharString>
        <CharString name="Ibreve">
          -55 callsubr
          121 169 hstemhm
          73 123 99 236 103 123 hintmask 00000000
          hintmask 00110010
          112 hmoveto
          605 hlineto
          hintmask 10010010
          106 vlineto
          hintmask 00110010
          -97 callgsubr
          hintmask 01010010
          -183 -24 rlineto
          hintmask 00001101
          306 1534 10 callsubr
        </CharString>
        <CharString name="Icircumflex">
          -55 callsubr
          132 359 hstemhm
          52 728 -485 130 callgsubr
          hintmask 00110010
          112 hmoveto
          605 hlineto
          hintmask 10010010
          106 vlineto
          hintmask 00110010
          -97 callgsubr
          hintmask 01010010
          -183 -24 rlineto
          hintmask 00001100
          25 1545 -90 callgsubr
        </CharString>
        <CharString name="Idieresis">
          -60 callsubr
        </CharString>
        <CharString name="Idotaccent">
          -55 callsubr
          192 -21 hstemhm
          273 286 -264 130 callgsubr
          hintmask 00110010
          112 hmoveto
          605 hlineto
          hintmask 10010010
          106 vlineto
          hintmask 00110010
          -97 callgsubr
          hintmask 01010010
          -183 -24 rlineto
          hintmask 00001100
          291 -3 callsubr
        </CharString>
        <CharString name="Igrave">
          82 callsubr
          49 484 -238 130 callgsubr
          hintmask 00110001
          112 hmoveto
          605 hlineto
          hintmask 10010001
          106 vlineto
          hintmask 00110001
          -97 callgsubr
          hintmask 01010001
          -183 -24 rlineto
          hintmask 00001110
          340 1524 22 callgsubr
        </CharString>
        <CharString name="Imacron">
          -55 callsubr
          224 158 hstemhm
          134 570 -409 130 callgsubr
          hintmask 00110010
          112 hmoveto
          605 hlineto
          hintmask 10010010
          106 vlineto
          hintmask 00110010
          -97 callgsubr
          hintmask 01010010
          -183 -24 rlineto
          hintmask 00001100
          22 1637 113 callgsubr
        </CharString>
        <CharString name="Iogonek">
          -586 -511 146 365 -48 callgsubr
          hstemhm
          112 213 -30 130 callgsubr
          hintmask 10011100
          112 hmoveto
          253 hlineto
          -129 -62 -118 -140 -113 vvcurveto
          -142 128 -54 134 84 96 26 43 58 vhcurveto
          110 vlineto
          -20 -46 -47 -13 -48 hhcurveto
          -86 -66 35 86 76 90 112 112 56 hvcurveto
          190 hlineto
          hintmask 11001100
          106 vlineto
          hintmask 10011010
          -186 27 10 callgsubr
          183 -23 callgsubr
          vlineto
          hintmask 10011100
          -602 -111 hlineto
          hintmask 10011010
          183 -26 rlineto
          -1252 vlineto
          hintmask 10101100
          -183 -24 rlineto
          endchar
        </CharString>
        <CharString name="Itilde">
          -55 callsubr
          162 89 callgsubr
          -12 858 -551 130 callgsubr
          hintmask 00110001
          112 hmoveto
          605 hlineto
          hintmask 10010001
          106 vlineto
          hintmask 00110001
          -97 callgsubr
          hintmask 01010001
          -183 -24 rlineto
          hintmask 00000000
          -28 1623 rmoveto
          hintmask 00001010
          6 callsubr
          hintmask 00001110
          -43 callsubr
          hintmask 00001010
          52 callsubr
          endchar
        </CharString>
        <CharString name="J">
          -633 -13 callgsubr
        </CharString>
        <CharString name="Jcircumflex">
          -634 1385 137 -111 94 callsubr
          37 728 -476 233 hintmask 00000000
          hintmask 01001000
          247 -5 -53 callsubr
          hintmask 10001000
          820 vlineto
          hintmask 01001000
          20 callgsubr
          hintmask 10001000
          67 callsubr
          hintmask 01001000
          51 callsubr
          hintmask 00110000
          -125 1659 -90 callgsubr
        </CharString>
        <CharString name="K">
          76 0 108 1303 111 hstem
          266 235 vstem
          97 hmoveto
          -15 callsubr
        </CharString>
        <CharString name="Kcommaaccent">
          76 7 callgsubr
          503 108 1303 152 callsubr
          235 262 187 hintmask 00000000
          hintmask 10100010
          678 -88 callgsubr
          hintmask 00011100
          -581 218 rmoveto
          -15 callsubr
        </CharString>
        <CharString name="L">
          -112 0 142 1269 111 hstem
          266 237 vstem
          27 callsubr
          endchar
        </CharString>
        <CharString name="Lacute">
          -112 0 142 1269 41 callsubr
          266 237 -149 485 hintmask 00110100
          434 1633 -96 callsubr
          hintmask 11001000
          -256 -1701 rmoveto
          -80 callgsubr
          endchar
        </CharString>
        <CharString name="Lcaron">
          -112 0 142 885 658 -274 125 callgsubr
          453 192 20 callsubr
          925 918 -50 callsubr
        </CharString>
        <CharString name="Lcommaaccent">
          -113 7 callgsubr
          503 142 1269 125 callgsubr
          160 187 hintmask 00000000
          hintmask 10100010
          578 -88 callgsubr
          hintmask 00011100
          -480 218 rmoveto
          -80 callgsubr
          endchar
        </CharString>
        <CharString name="Ldot">
          -100 0 142 594 -21 696 125 callgsubr
          324 307 20 callsubr
          729 742 rmoveto
          -45 callsubr
          endchar
        </CharString>
        <CharString name="Lslash">
          -113 0 142 1269 111 hstem
          266 237 vstem
          98 hmoveto
          1098 hlineto
          68 463 -134 23 -122 -334 -505 -20 rlineto
          580 vlineto
          383 164 rlineto
          131 vlineto
          -383 -168 rlineto
          546 vlineto
          193 -68 callsubr
          -595 -67 callgsubr
          165 -25 rlineto
          -644 vlineto
          -219 -95 rlineto
          -123 vlineto
          219 93 rlineto
          -484 vlineto
          64 callgsubr
          endchar
        </CharString>
        <CharString name="M">
          633 -40 callsubr
        </CharString>
        <CharString name="N">
          225 13 callgsubr
          hstem
          155 callgsubr
          858 151 vstem
          98 hmoveto
          -96 callgsubr
        </CharString>
        <CharString name="NULL">
          -1413 endchar
        </CharString>
        <CharString name="Nacute">
          156 callsubr
          132 -21 89 -21 hstemhm
          155 callgsubr
          305 485 68 151 hintmask 00110100
          799 1633 -96 callsubr
          hintmask 11001010
          -621 -1701 rmoveto
          -96 callgsubr
        </CharString>
        <CharString name="Ncaron">
          156 callsubr
          154 88 callsubr
          155 callgsubr
          95 695 68 151 hintmask 00000000
          hintmask 00010100
          764 1676 -33 callgsubr
          hintmask 00100100
          -34 callsubr
          hintmask 11001010
          -411 -1952 rmoveto
          -96 callgsubr
        </CharString>
        <CharString name="Ncommaaccent">
          227 7 callgsubr
          503 109 1302 111 hstemhm
          155 callgsubr
          408 187 155 callgsubr
          hintmask 00000000
          hintmask 10100010
          737 -88 callgsubr
          hintmask 00011101
          -639 218 rmoveto
          -96 callgsubr
        </CharString>
        <CharString name="Ntilde">
          156 callsubr
          162 89 callgsubr
          155 callgsubr
          -13 858 13 151 hintmask 00000000
          hintmask 00100100
          497 1732 rmoveto
          hintmask 00110100
          6 callsubr
          hintmask 00100100
          -43 callsubr
          hintmask 00110100
          52 callsubr
          hintmask 11001010
          -303 -1795 rmoveto
          -96 callgsubr
        </CharString>
        <CharString name="O">
          -7 callgsubr
          hstem
          150 callsubr
          vstem
          -53 callgsubr
          endchar
        </CharString>
        <CharString name="OE">
          699 -16 115 -99 134 584 126 556 121 -90 111 hstemhm
          78 256 693 234 358 130 hintmask 00000000
          hintmask 10110110
          742 -16 rmoveto
          102 2 97 25 86 48 rrcurveto
          hintmask 01110111
          -59 975 vlineto
          76 359 -127 37 -130 -251 -560 -22 rlineto
          598 vlineto
          328 -6 30 -171 rlineto
          130 468 -130 hlineto
          -30 -164 -328 -7 rlineto
          566 vlineto
          483 -13 62 -191 rlineto
          127 hlineto
          -27 319 rlineto
          -879 hlineto
          hintmask 01101110
          -27 vlineto
          33 -76 -87 14 -95 hhcurveto
          -395 -3 -296 -306 -481 vvcurveto
          hintmask 10110110
          -458 234 -317 430 7 vhcurveto
          13 115 rmoveto
          -267 1 -154 282 371 vvcurveto
          hintmask 01101110
          443 158 235 261 126 87 -41 -73 61 vhcurveto
          -1084 vlineto
          hintmask 10110110
          -86 -65 -91 -48 -116 hhcurveto
          endchar
        </CharString>
        <CharString name="Oacute">
          -7 callgsubr
          115 -21 89 -21 138 callgsubr
          274 485 69 259 hintmask 00110100
          680 1633 -96 callsubr
          hintmask 11001010
          127 -1724 -105 callgsubr
          endchar
        </CharString>
        <CharString name="Obreve">
          -7 callgsubr
          104 169 138 callgsubr
          76 126 callsubr
          68 259 hintmask 00101100
          747 1643 -91 callgsubr
          hintmask 11010010
          -20 -1666 -105 callgsubr
          endchar
        </CharString>
        <CharString name="Ocircumflex">
          -7 callgsubr
          115 359 138 callgsubr
          55 728 45 -57 callsubr
          hintmask 00101000
          -274 1559 -90 callgsubr
        </CharString>
        <CharString name="Odieresis">
          -7 callgsubr
          148 0 callsubr
          66 260 29 25 callgsubr
          19 259 hintmask 00000000
          hintmask 00010010
          981 1687 -62 callgsubr
          hintmask 11001001
          247 -1710 -105 callgsubr
          endchar
        </CharString>
        <CharString name="Ograve">
          -7 callgsubr
          115 -21 89 -21 138 callgsubr
          100 484 244 259 hintmask 00110100
          829 1633 -70 callsubr
          hintmask 11001010
          -102 -1656 -105 callgsubr
          endchar
        </CharString>
        <CharString name="Ohungarumlaut">
          -7 callgsubr
          119 -21 138 callgsubr
          39 934 -145 -57 callsubr
          hintmask 00101000
          -280 1542 -32 callsubr
        </CharString>
        <CharString name="Omacron">
          -7 callgsubr
          207 158 138 callgsubr
          138 570 120 259 hintmask 00101000
          464 1746 42 callgsubr
          hintmask 11010100
          263 -1927 -105 callgsubr
          endchar
        </CharString>
        <CharString name="Omega">
          -51 callgsubr
        </CharString>
        <CharString name="Omegagreek">
          -51 callgsubr
        </CharString>
        <CharString name="Oslash">
          -7 callgsubr
          165 -21 hstem
          150 callsubr
          vstem
          -44 callsubr
          endchar
        </CharString>
        <CharString name="Oslashacute">
          -7 callgsubr
          115 -21 71 -21 39 -21 138 callgsubr
          232 485 111 259 hintmask 11010101
          -44 callsubr
          hintmask 00101010
          70 1494 -65 callsubr
        </CharString>
        <CharString name="Otilde">
          -7 callgsubr
          145 89 callgsubr
          66 260 -9 858 -21 259 hintmask 00000000
          hintmask 00100100
          413 1732 rmoveto
          hintmask 00110100
          6 callsubr
          hintmask 00100100
          -43 callsubr
          hintmask 00110100
          52 callsubr
          hintmask 11001010
          410 -1818 -105 callgsubr
          endchar
        </CharString>
        <CharString name="P">
          -54 callsubr
        </CharString>
        <CharString name="Q">
          89 -425 174 228 118 -83 -21 1431 117 hstemhm
          76 260 828 259 hintmask 00000000
          hintmask 11011100
          737 -23 rmoveto
          hintmask 10111100
          45 1 43 5 42 8 rrcurveto
          -32 265 160 -384 355 hhcurveto
          11 hlineto
          128 61 47 18 23 hvcurveto
          -33 110 rlineto
          -1 -13 -26 0 -16 hhcurveto
          -2 hlineto
          -213 -281 286 10 -258 hvcurveto
          239 118 156 261 353 -76 callsubr
          vhcurveto
          hintmask 11011100
          -462 226 -318 435 7 vhcurveto
          13 118 rmoveto
          -263 -151 255 401 457 164 214 251 262 151 -245 -401 -456 -164 -225 -250 hvcurveto
          endchar
        </CharString>
        <CharString name="R">
          31 callsubr
          90 callgsubr
          498 255 hintmask 00000000
          hintmask 10100111
          96 hmoveto
          599 -56 callsubr
          hintmask 01100111
          43 callgsubr
          hintmask 10100111
          -39 callsubr
          hintmask 10101011
          59 callsubr
          hintmask 01110011
          101 callsubr
          hintmask 10100111
          -27 callsubr
          endchar
        </CharString>
        <CharString name="Racute">
          31 callsubr
          117 -21 89 -21 90 callgsubr
          79 485 -66 151 callgsubr
          hintmask 1010010010100000
          96 hmoveto
          599 -56 callsubr
          hintmask 0110010010100000
          43 callgsubr
          hintmask 1010010010100000
          -39 callsubr
          hintmask 1010100010100000
          59 callsubr
          hintmask 0111000010100000
          101 callsubr
          hintmask 1010010010100000
          -27 callsubr
          hintmask 0000001101000000
          159 847 -65 callsubr
        </CharString>
        <CharString name="Rcaron">
          31 callsubr
          139 108 callsubr
          -121 695 -76 151 callgsubr
          hintmask 0000000101000000
          632 1676 -33 callgsubr
          hintmask 0000001001000000
          -34 callsubr
          -43 callgsubr
          -281 -1952 rmoveto
          599 -56 callsubr
          hintmask 1010010010100000
          43 callgsubr
          hintmask 0110010010100000
          -39 callsubr
          hintmask 1010010010100000
          59 callsubr
          hintmask 1010100010100000
          101 callsubr
          hintmask 0111000010100000
          -27 callsubr
          endchar
        </CharString>
        <CharString name="Rcommaaccent">
          27 50 callsubr
          131 535 118 603 135 137 callsubr
          -102 117 90 callgsubr
          240 187 71 151 callgsubr
          hintmask 1010000000100000
          653 -218 rmoveto
          -50 17 -23 23 -14 vhcurveto
          21 -14 24 -18 -38 vvcurveto
          -52 -21 -59 -38 -17 vhcurveto
          hintmask 1100000000100000
          -83 callgsubr
          hintmask 1010000000100000
          -38 -84 -19 -89 hvcurveto
          -43 callgsubr
          -557 218 rmoveto
          599 -56 callsubr
          hintmask 0001010011010000
          43 callgsubr
          hintmask 0000110011010000
          -39 callsubr
          hintmask 0001010011010000
          59 callsubr
          hintmask 0001010101010000
          101 callsubr
          hintmask 0000111001010000
          -27 callsubr
          endchar
        </CharString>
        <CharString name="S">
          41 callgsubr
          hstem
          160 callsubr
          527 244 vstem
          117 70 -32 callgsubr
        </CharString>
        <CharString name="Sacute">
          41 callgsubr
          115 90 callsubr
          160 callsubr
          129 485 -87 244 hintmask 11001010
          117 70 -103 callsubr
          hintmask 00110100
          436 1193 -65 callsubr
        </CharString>
        <CharString name="Scaron">
          41 callgsubr
          158 -21 hstemhm
          160 callsubr
          -73 695 -95 244 hintmask 11010100
          117 70 -103 callsubr
          hintmask 00000000
          409 1236 -33 callgsubr
          hintmask 00101000
          -34 callsubr
          endchar
        </CharString>
        <CharString name="Scircumflex">
          41 callgsubr
          115 359 hstemhm
          160 callsubr
          -90 728 -111 244 hintmask 11010100
          117 70 -103 callsubr
          hintmask 00101000
          222 1214 -90 callgsubr
        </CharString>
        <CharString name="T">
          -2 0 112 callgsubr
          hintmask 00000000
          hintmask 10110000
          324 hmoveto
          785 -56 callsubr
          hintmask 01110000
          -71 callgsubr
          hintmask 10110000
          106 callgsubr
        </CharString>
        <CharString name="Tbar">
          35 47 callgsubr
          521 127 617 124 hstemhm
          604 241 110 callgsubr
          343 hmoveto
          785 -56 callsubr
          hintmask 01111000
          -283 24 rlineto
          521 236 127 -236 622 vlineto
          320 -10 76 -418 rlineto
          143 hlineto
          -32 547 rlineto
          -1266 hlineto
          -35 -547 rlineto
          145 hlineto
          75 418 333 10 rlineto
          -622 -239 -127 239 -521 vlineto
          hintmask 10111000
          106 callgsubr
        </CharString>
        <CharString name="Tcaron">
          131 callgsubr
          154 88 callsubr
          377 695 -487 241 hintmask 00000000
          hintmask 00001100
          632 1676 -33 callgsubr
          hintmask 00010100
          -34 callsubr
          hintmask 00000000
          -53 -1952 rmoveto
          785 -56 callsubr
          hintmask 10100010
          -71 callgsubr
          hintmask 01100010
          106 callgsubr
        </CharString>
        <CharString name="Thorn">
          -86 0 107 -107 131 204 113 615 121 -20 -20 243 160 callgsubr
          hstemhm
          263 233 519 254 -43 callgsubr
          hintmask 1010101110000000
          95 hmoveto
          617 107 hlineto
          hintmask 0111010110000000
          -216 24 rlineto
          212 vlineto
          -5 58 71 -3 115 hhcurveto
          327 202 139 310 268 -169 132 -294 -116 -96 -12 -8 -98 hvcurveto
          223 vlineto
          hintmask 1010101110000000
          174 28 rlineto
          107 -572 -107 vlineto
          hintmask 0110110110000000
          165 -28 rlineto
          -1256 vlineto
          hintmask 1011001110000000
          64 callgsubr
          401 350 rmoveto
          588 vlineto
          49 7 69 9 76 2 rrcurveto
          239 6 86 -119 -178 vvcurveto
          -241 -129 -83 -168 -68 -72 -1 10 -82 vhcurveto
          endchar
        </CharString>
        <CharString name="U">
          -27 callgsubr
          72 callgsubr
          734 166 110 callgsubr
          184 643 -58 callsubr
          hintmask 11011000
          766 vlineto
          hintmask 10111000
          -18 callsubr
          hintmask 11011000
          -84 callsubr
          hintmask 10111000
          -17 callgsubr
          hintmask 11011000
          144 -26 rlineto
          endchar
        </CharString>
        <CharString name="Uacute">
          -27 callgsubr
          132 -21 89 -21 72 callgsubr
          220 485 29 166 hintmask 00011010
          728 1633 -96 callsubr
          hintmask 00000000
          -464 -1058 -60 callgsubr
        </CharString>
        <CharString name="Ubreve">
          -27 callgsubr
          121 169 72 callgsubr
          21 126 callsubr
          29 166 hintmask 00010110
          794 1643 -91 callgsubr
          hintmask 00000000
          -610 -1000 -58 callsubr
          hintmask 10101001
          766 vlineto
          hintmask 11001001
          -18 callsubr
          hintmask 10101001
          -84 callsubr
          hintmask 11001001
          -17 callgsubr
          hintmask 10101001
          144 -26 rlineto
          endchar
        </CharString>
        <CharString name="Ucircumflex">
          -27 callgsubr
          132 359 72 callgsubr
          1 728 5 -63 callsubr
          hintmask 00010100
          330 269 -90 callgsubr
        </CharString>
        <CharString name="Udieresis">
          -27 callgsubr
          63 callsubr
          184 244 -25 25 callgsubr
          -21 166 -43 callgsubr
          hintmask 0000100100000000
          1029 -47 callgsubr
          -43 callgsubr
          -344 -1044 -58 callsubr
          hintmask 1010010010000000
          766 vlineto
          hintmask 1100010010000000
          -18 callsubr
          hintmask 1010010010000000
          -84 callsubr
          hintmask 1100010010000000
          -17 callgsubr
          hintmask 1010010010000000
          144 -26 rlineto
          endchar
        </CharString>
        <CharString name="Ugrave">
          -27 callgsubr
          132 -21 89 -21 72 callgsubr
          49 484 201 166 hintmask 00011010
          880 1633 -70 callsubr
          hintmask 00000000
          -696 -990 -60 callgsubr
        </CharString>
        <CharString name="Uhungarumlaut">
          -27 callgsubr
          136 -21 72 callgsubr
          -16 934 -184 -63 callsubr
          hintmask 00010100
          323 252 -32 callsubr
        </CharString>
        <CharString name="Umacron">
          -27 callgsubr
          224 158 72 callgsubr
          83 570 81 166 hintmask 00010100
          511 1746 42 callgsubr
          hintmask 00000000
          -327 -1261 -58 callsubr
          hintmask 10101010
          766 vlineto
          hintmask 11001010
          -18 callsubr
          hintmask 10101010
          -84 callsubr
          hintmask 11001010
          -17 callgsubr
          hintmask 10101010
          144 -26 rlineto
          endchar
        </CharString>
        <CharString name="Uogonek">
          95 -511 146 349 119 1282 79 callsubr
          184 244 128 42 399 55 110 166 hintmask 00000000
          hintmask 11011111
          556 -315 rmoveto
          -146 129 -50 130 84 96 27 43 57 vhcurveto
          7 callsubr
          -20 -46 -46 -13 -49 hhcurveto
          -82 -65 39 86 80 93 101 121 74 hvcurveto
          208 71 142 193 340 vvcurveto
          hintmask 11101111
          766 vlineto
          hintmask 11011111
          -18 callsubr
          hintmask 11101111
          -84 callsubr
          hintmask 11011111
          -17 callgsubr
          hintmask 11101111
          144 -26 rlineto
          -742 vlineto
          -456 178 -203 414 8 9 0 1 9 vhcurveto
          hintmask 11011111
          -130 -65 -116 -126 -109 vvcurveto
          endchar
        </CharString>
        <CharString name="Uring">
          -27 callgsubr
          -17 99 310 100 72 callgsubr
          41 161 346 159 27 166 -43 callgsubr
          hintmask 1010010010000000
          184 643 -58 callsubr
          hintmask 1100010010000000
          766 vlineto
          hintmask 1010010010000000
          -18 callsubr
          hintmask 1100010010000000
          -84 callsubr
          hintmask 1010010010000000
          -17 callgsubr
          hintmask 1100010010000000
          144 -26 rlineto
          hintmask 0001101100000000
          615 120 -46 callsubr
        </CharString>
        <CharString name="Utilde">
          -27 callgsubr
          162 89 callgsubr
          184 244 -64 858 -60 166 hintmask 00000000
          hintmask 00010010
          460 1732 rmoveto
          hintmask 00011010
          6 callsubr
          hintmask 00010010
          -43 callsubr
          hintmask 00011010
          52 callsubr
          hintmask 00000000
          -180 -1152 -60 callgsubr
        </CharString>
        <CharString name="V">
          -46 6 -21 1426 111 hstem
          -34 1442 vstem
          606 -15 rmoveto
          188 hlineto
          482 1400 132 -68 callsubr
          -462 -67 callgsubr
          156 -26 -303 -949 -59 -236 -68 233 -329 953 184 -23 callgsubr
          -561 -67 callgsubr
          127 -26 rlineto
          endchar
        </CharString>
        <CharString name="W">
          633 -10 154 -133 -21 1421 111 hstemhm
          -44 2131 hintmask 00000000
          hintmask 01110000
          522 -10 -54 callgsubr
          hintmask 10110000
          -73 callsubr
          endchar
        </CharString>
        <CharString name="Wacute">
          633 11 -21 1421 41 callsubr
          -44 2131 -1207 485 hintmask 00110100
          960 1633 -96 callsubr
          hintmask 00000000
          -358 -1711 -54 callgsubr
          hintmask 11001000
          -73 callsubr
          endchar
        </CharString>
        <CharString name="Wcircumflex">
          633 -10 154 -133 -21 1421 94 callsubr
          -44 2131 -1427 728 hintmask 00000000
          hintmask 01101000
          522 -10 -54 callgsubr
          hintmask 10101000
          -73 callsubr
          hintmask 00010100
          655 270 -90 callgsubr
        </CharString>
        <CharString name="Wdieresis">
          633 11 -21 1421 111 63 callsubr
          -44 2131 -1452 25 callgsubr
          hintmask 00000000
          hintmask 00010010
          1261 1687 -62 callgsubr
          hintmask 00000000
          -238 -1697 -54 callgsubr
          hintmask 11001000
          -73 callsubr
          endchar
        </CharString>
        <CharString name="Wgrave">
          633 11 -21 1421 41 callsubr
          -44 2131 -1381 484 hintmask 00110100
          1109 1633 -70 callsubr
          hintmask 00000000
          -587 -1643 -54 callgsubr
          hintmask 11001000
          -73 callsubr
          endchar
        </CharString>
        <CharString name="X">
          -21 callgsubr
        </CharString>
        <CharString name="Y">
          -96 13 callgsubr
          hstem
          552 243 vstem
          333 -95 callsubr
          endchar
        </CharString>
        <CharString name="Yacute">
          -96 0 109 1302 41 callsubr
          541 485 -474 243 hintmask 11000100
          333 -95 callsubr
          hintmask 00111000
          288 1524 -65 callsubr
        </CharString>
        <CharString name="Ycircumflex">
          -96 13 callgsubr
          132 359 hstemhm
          320 728 -496 243 hintmask 11001000
          333 -95 callsubr
          hintmask 00110000
          72 1545 -90 callgsubr
        </CharString>
        <CharString name="Ydieresis">
          -96 13 callgsubr
          63 callsubr
          295 280 -23 243 0 280 hintmask 11000100
          333 -95 callsubr
          hintmask 00000000
          588 92 callsubr
          hintmask 00010010
          -66 callgsubr
          hintmask 00100010
          34 callgsubr
          hintmask 00010010
          -57 callgsubr
          hintmask 00011000
          -67 callsubr
          hintmask 00101000
          96 callsubr
        </CharString>
        <CharString name="Ygrave">
          -96 0 109 1302 41 callsubr
          366 484 -298 243 hintmask 11000100
          333 -95 callsubr
          hintmask 00111000
          436 1524 22 callgsubr
        </CharString>
        <CharString name="Z">
          51 callgsubr
          hstemhm
          65 1191 hintmask 00000000
          hintmask 11101000
          65 98 -31 callsubr
          hintmask 11011000
          103 callsubr
          hintmask 11101000
          -28 callgsubr
          endchar
        </CharString>
        <CharString name="Zacute">
          51 callgsubr
          126 90 callsubr
          65 1191 -690 485 hintmask 00000000
          hintmask 11100010
          65 98 -31 callsubr
          hintmask 11010010
          103 callsubr
          hintmask 11100010
          -28 callgsubr
          hintmask 00001101
          -212 355 -65 callsubr
        </CharString>
        <CharString name="Zcaron">
          51 callgsubr
          148 88 callsubr
          65 1191 -890 695 hintmask 00000000
          hintmask 00000101
          621 1676 -33 callgsubr
          hintmask 00001001
          -34 callsubr
          hintmask 00000000
          -301 -1854 -31 callsubr
          hintmask 11100010
          103 callsubr
          hintmask 11010010
          -28 callgsubr
          endchar
        </CharString>
        <CharString name="Zdotaccent">
          51 callgsubr
          186 -21 hstemhm
          65 1191 -688 286 hintmask 00001010
          698 1693 -89 callgsubr
          hintmask 00000000
          -633 -1595 -31 callsubr
          hintmask 11100100
          103 callsubr
          hintmask 11010100
          -28 callgsubr
          endchar
        </CharString>
        <CharString name="a">
          -62 callsubr
          115 callgsubr
          421 220 hintmask 00000000
          hintmask 01111100
          -91 callsubr
          hintmask 10111100
          -101 callsubr
          hintmask 01111100
          -98 callsubr
          endchar
        </CharString>
        <CharString name="aacute">
          -62 callsubr
          535 -21 115 callgsubr
          72 490 -141 -100 callsubr
          153 1003 -93 callsubr
          endchar
        </CharString>
        <CharString name="abreve">
          -62 callsubr
          190 180 115 callgsubr
          -134 122 433 220 -213 118 -43 callgsubr
          hintmask 0111010100000000
          -91 callsubr
          hintmask 1011010100000000
          -101 callsubr
          hintmask 0111010100000000
          -98 callsubr
          hintmask 0000101010000000
          209 1020 -93 callgsubr
        </CharString>
        <CharString name="acircumflex">
          -62 callsubr
          163 457 115 callgsubr
          -169 749 -159 -100 callsubr
          -87 993 24 callgsubr
        </CharString>
        <CharString name="acute">
          -732 1696 -21 hstem
          204 490 vstem
          285 -86 callsubr
          endchar
        </CharString>
        <CharString name="acute.cap">
          -360 1654 -21 89 -21 hstem
          504 485 vstem
          584 1633 -65 callsubr
        </CharString>
        <CharString name="adieresis">
          -62 callsubr
          115 callgsubr
          421 220 hintmask 00000000
          hintmask 01111100
          -91 callsubr
          hintmask 10111100
          -101 callsubr
          hintmask 01111100
          -98 callsubr
          hintmask 00000000
          430 1024 -77 callsubr
        </CharString>
        <CharString name="ae">
          368 36 callsubr
          hstemhm
          83 111 callsubr
          83 -74 callsubr
        </CharString>
        <CharString name="aeacute">
          351 36 callsubr
          528 -21 hstemhm
          86 248 416 248 -220 490 199 237 hintmask 0000001001000000
          859 -86 callsubr
          -43 callgsubr
          -692 -1107 rmoveto
          -225 164 -99 181 209 143 127 91 64 vhcurveto
          -136 83 141 -82 199 hhcurveto
          167 172 75 77 75 hvcurveto
          -42 96 rlineto
          -47 -60 -130 -47 -114 hhcurveto
          hintmask 0101010110100000
          109 callgsubr
          694 hlineto
          10 48 2 63 85 vvcurveto
          265 -10 -145 143 -255 hhcurveto
          -150 -129 -55 -96 -94 hvcurveto
          hintmask 0110010110100000
          101 -52 -102 43 -179 hhcurveto
          -193 -226 -112 -47 -54 hvcurveto
          50 -102 rlineto
          42 90 127 55 150 hhcurveto
          176 42 -68 -179 hvcurveto
          -61 vlineto
          hintmask 0101100110100000
          -339 -6 -325 -101 -281 vvcurveto
          hintmask 0101010110100000
          912 379 rmoveto
          283 13 103 84 136 hhcurveto
          159 57 -126 -155 1 hvcurveto
          -25 -1 -34 -2 -27 vhcurveto
          -1130 -348 rmoveto
          hintmask 1010010110100000
          131 118 117 298 1 vhcurveto
          -2 vlineto
          7 -5 rlineto
          -3 vlineto
          -106 15 -95 31 -83 vhcurveto
          -69 -41 -116 -90 -122 hhcurveto
          hintmask 1001010110100000
          -108 -82 54 150 hvcurveto
          endchar
        </CharString>
        <CharString name="afii10017">
          -42 callgsubr
          hstemhm
          -34 1482 hintmask 00000000
          hintmask 11011000
          -33 -103 callgsubr
          hintmask 11101000
          -33 callsubr
          endchar
        </CharString>
        <CharString name="afii10018">
          -69 -16 118 -102 -66 callsubr
          132 657 131 478 124 -111 111 89 callsubr
          531 247 hintmask 00000000
          hintmask 01011011
          59 hmoveto
          331 hlineto
          85 210 -16 49 hhcurveto
          hintmask 10011011
          318 225 169 323 281 -172 163 -350 -97 -113 -5 -4 -46 hvcurveto
          493 vlineto
          478 -12 68 -254 rlineto
          149 hlineto
          -21 384 rlineto
          -1112 hlineto
          hintmask 00110111
          -67 callgsubr
          205 39 callsubr
          hintmask 01011011
          -207 -23 rlineto
          hintmask 10011011
          440 12 rmoveto
          662 vlineto
          3 40 73 3 78 hhcurveto
          212 128 -103 -227 -230 -117 -127 -224 -105 -41 8 11 -44 hvcurveto
          endchar
        </CharString>
        <CharString name="afii10019">
          -69 callgsubr
        </CharString>
        <CharString name="afii10020">
          -239 0 108 1289 77 callsubr
          hintmask 11010000
          50 hmoveto
          120 callsubr
          1270 98 callgsubr
          hintmask 10110000
          59 callgsubr
        </CharString>
        <CharString name="afii10021">
          91 0 133 1259 130 -14 callsubr
          hstemhm
          470 138 390 230 10 182 hintmask 00000000
          hintmask 11011000
          69 127 rmoveto
          -6 6 rlineto
          -4 -51 -21 -438 -23 vvcurveto
          144 hlineto
          12 57 75 307 8 15 rrcurveto
          hintmask 11011100
          902 hlineto
          10 -26 47 -300 2 -51 rrcurveto
          143 hlineto
          3 9 29 473 28 vvcurveto
          hintmask 10111000
          -185 1253 hlineto
          hintmask 10111100
          192 25 rlineto
          hintmask 11011100
          111 -1159 vlineto
          hintmask 10111000
          -67 callgsubr
          209 -25 rlineto
          -117 vlineto
          -707 -186 -339 -70 -90 vhcurveto
          -145 hlineto
          335 hmoveto
          68 110 140 393 -4 621 rrcurveto
          hintmask 11011000
          135 391 vlineto
          -2 -1259 rlineto
          endchar
        </CharString>
        <CharString name="afii10022">
          -37 callsubr
          hstem
          264 235 355 129 vstem
          96 hmoveto
          -106 callgsubr
        </CharString>
        <CharString name="afii10023">
          -37 callsubr
          166 296 -275 104 callgsubr
          -191 25 callgsubr
          -234 129 -43 callgsubr
          hintmask 0000100100000000
          934 -47 callgsubr
          hintmask 1110010010000000
          -337 -1687 rmoveto
          -106 callgsubr
        </CharString>
        <CharString name="afii10024">
          78 callgsubr
          hstem
          953 225 vstem
          14 hmoveto
          -86 callgsubr
        </CharString>
        <CharString name="afii10025">
          -170 -12 158 callsubr
          hstemhm
          850 252 -232 277 hintmask 00000000
          hintmask 11110000
          92 109 callsubr
          hintmask 11101000
          50 callgsubr
          hintmask 11110000
          -44 callgsubr
          hintmask 11101000
          18 callgsubr
          endchar
        </CharString>
        <CharString name="afii10026">
          26 callgsubr
          137 callgsubr
          735 231 110 callgsubr
          98 hmoveto
          -83 callsubr
          hintmask 11011000
          998 vlineto
          hintmask 10111000
          -23 callsubr
          endchar
        </CharString>
        <CharString name="afii10027">
          26 callgsubr
          139 103 137 callgsubr
          -18 143 callsubr
          -35 231 hintmask 00010110
          871 1661 -88 callsubr
          hintmask 00000000
          -773 -1661 rmoveto
          -83 callsubr
          hintmask 10101001
          998 vlineto
          hintmask 11001001
          -23 callsubr
          endchar
        </CharString>
        <CharString name="afii10028">
          32 0 106 -106 109 589 108 605 152 callgsubr
          159 callgsubr
          hintmask 01111000
          102 hmoveto
          563 hlineto
          hintmask 10111000
          106 vlineto
          87 callgsubr
          hintmask 01111000
          -19 callgsubr
          579 hlineto
          125 callsubr
          -553 32 callsubr
        </CharString>
        <CharString name="afii10029">
          104 -12 186 -174 109 1277 65 callgsubr
          hintmask 00000000
          hintmask 01101100
          75 hmoveto
          hintmask 10101100
          62 callsubr
          hintmask 01011100
          -1 -1252 -213 -25 4 callsubr
          651 7 callsubr
          -208 24 rlineto
          1252 vlineto
          188 26 rlineto
          hintmask 01101100
          35 callsubr
        </CharString>
        <CharString name="afii10030">
          646 -40 callsubr
        </CharString>
        <CharString name="afii10031">
          131 callsubr
          hstem
          265 235 700 235 vstem
          -59 callsubr
          endchar
        </CharString>
        <CharString name="afii10032">
          -7 callgsubr
          hstem
          150 callsubr
          vstem
          -53 callgsubr
          endchar
        </CharString>
        <CharString name="afii10033">
          207 0 109 1282 116 callsubr
          hintmask 00000000
          hintmask 11011000
          45 callsubr
          hintmask 10111000
          1251 vlineto
          174 28 rlineto
          hintmask 11011000
          110 -1438 vlineto
          hintmask 10111000
          -67 callgsubr
          174 30 callsubr
          -166 -25 rlineto
          endchar
        </CharString>
        <CharString name="afii10034">
          -54 callsubr
        </CharString>
        <CharString name="afii10035">
          -78 -23 57 callsubr
          hstem
          66 271 vstem
          66 762 -99 callgsubr
          endchar
        </CharString>
        <CharString name="afii10036">
          60 84 callsubr
          hstemhm
          616 241 hintmask 00000000
          hintmask 10110000
          355 hmoveto
          785 -56 callsubr
          hintmask 01110000
          -71 callgsubr
          hintmask 10110000
          106 callgsubr
        </CharString>
        <CharString name="afii10037">
          57 callgsubr
          hstem
          -13 1334 vstem
          247 14 -90 callsubr
          endchar
        </CharString>
        <CharString name="afii10038">
          157 -43 107 1391 109 hstem
          33 253 391 217 389 254 vstem
          486 -43 rmoveto
          599 107 hlineto
          -191 28 rlineto
          152 vlineto
          409 26 234 223 280 vvcurveto
          253 -95 250 -548 16 vhcurveto
          136 vlineto
          190 27 rlineto
          109 -599 -109 vlineto
          192 -27 rlineto
          -137 vlineto
          -417 -24 -227 -211 -278 vvcurveto
          -256 101 -263 543 -17 vhcurveto
          -148 vlineto
          -191 -26 rlineto
          191 273 rmoveto
          -341 29 -50 232 188 vvcurveto
          202 56 183 335 23 vhcurveto
          217 -858 rmoveto
          857 vlineto
          338 -29 51 -209 -191 vvcurveto
          -213 -58 -190 -331 -25 vhcurveto
          endchar
        </CharString>
        <CharString name="afii10039">
          -21 callgsubr
        </CharString>
        <CharString name="afii10040">
          223 0 128 -128 133 1278 152 callsubr
          231 619 232 51 115 hintmask 00000000
          hintmask 10111100
          75 hmoveto
          1291 144 callgsubr
          1 -51 rrcurveto
          144 hlineto
          hintmask 01111100
          3 9 54 473 28 vvcurveto
          -252 1253 hlineto
          166 -23 callgsubr
          -552 -67 callgsubr
          154 -25 rlineto
          hintmask 10111100
          -1258 -619 1257 vlineto
          197 -68 callsubr
          -597 -67 callgsubr
          169 -25 rlineto
          -1251 vlineto
          -191 -27 rlineto
          endchar
        </CharString>
        <CharString name="afii10041">
          10 121 callgsubr
          450 75 callgsubr
          hstemhm
          142 231 552 232 hintmask 00000000
          hintmask 10010111
          723 hmoveto
          614 106 hlineto
          hintmask 00110111
          -180 27 rlineto
          1252 vlineto
          -13 callsubr
          hintmask 10011011
          262 vlineto
          hintmask 10010111
          66 callgsubr
          hintmask 00111011
          69 callsubr
          hintmask 01010111
          -202 -25 rlineto
          endchar
        </CharString>
        <CharString name="afii10042">
          834 83 callsubr
          vstem
          75 hmoveto
          2096 -56 callsubr
          -189 25 rlineto
          1252 vlineto
          31 callgsubr
          1252 vlineto
          142 callsubr
          -579 -67 callgsubr
          169 30 callsubr
          -191 -25 rlineto
          endchar
        </CharString>
        <CharString name="afii10043">
          860 83 callsubr
          51 116 vstem
          75 hmoveto
          1925 144 callgsubr
          1 -51 rrcurveto
          143 hlineto
          4 9 55 472 29 vvcurveto
          -253 1253 hlineto
          31 callgsubr
          1253 vlineto
          179 -23 callgsubr
          -579 -67 callgsubr
          169 -25 rlineto
          -1252 vlineto
          -191 -25 rlineto
          endchar
        </CharString>
        <CharString name="afii10044">
          272 -16 116 -100 108 -108 134 658 128 477 124 -108 109 hstemhm
          614 237 531 247 hintmask 00000000
          hintmask 01011011
          346 hmoveto
          396 hlineto
          85 209 -16 49 hhcurveto
          hintmask 10010111
          320 224 169 323 280 -186 164 -335 hvcurveto
          -257 465 hlineto
          187 28 rlineto
          hintmask 00111011
          109 -938 vlineto
          -28 -518 rlineto
          150 hlineto
          64 386 328 15 rlineto
          -1271 vlineto
          hintmask 01011011
          -268 -26 rlineto
          hintmask 10011011
          505 11 rmoveto
          673 192 vlineto
          208 131 -105 -228 -230 -119 -129 -221 -104 -42 9 10 -45 hvcurveto
          endchar
        </CharString>
        <CharString name="afii10045">
          613 58 callsubr
          hstemhm
          267 233 527 248 249 236 -43 callgsubr
          hintmask 0000100100010000
          1341 hmoveto
          605 hlineto
          hintmask 0100000100010000
          106 vlineto
          hintmask 0000100100010000
          -97 callgsubr
          hintmask 0010000100010000
          -183 -24 rlineto
          -43 callgsubr
          -1243 -109 rmoveto
          103 callgsubr
          hintmask 0010010011100000
          2 callgsubr
          467 hlineto
          hintmask 1000011001100000
          86 callsubr
          hintmask 1000010011100000
          136 callsubr
          hintmask 0001011001100000
          -169 -22 rlineto
          hintmask 0010010011100000
          -10 callgsubr
        </CharString>
        <CharString name="afii10046">
          -83 128 callsubr
          467 132 -102 102 89 callsubr
          527 248 hintmask 00000000
          hintmask 01010111
          97 hmoveto
          103 callgsubr
          hintmask 10011011
          2 callgsubr
          467 hlineto
          hintmask 10010111
          86 callsubr
          hintmask 00111011
          136 callsubr
          hintmask 01010111
          -169 -22 rlineto
          hintmask 10010111
          -10 callgsubr
        </CharString>
        <CharString name="afii10047">
          -57 -23 121 610 150 562 118 hstem
          1022 268 vstem
          128 -22 callgsubr
          endchar
        </CharString>
        <CharString name="afii10048">
          791 -18 119 -101 -41 callgsubr
          582 134 537 136 -14 callsubr
          -102 119 89 callsubr
          317 256 807 256 -43 callgsubr
          hintmask 0101001111000000
          99 hmoveto
          573 -56 callsubr
          hintmask 0011001111000000
          -173 24 rlineto
          582 317 vlineto
          hintmask 1001001111000000
          -441 4 234 -292 418 hhcurveto
          368 287 294 504 8 hvcurveto
          443 6 -228 316 -413 hhcurveto
          -336 -297 -251 -439 -45 hvcurveto
          -325 hlineto
          hintmask 1001100111000000
          537 vlineto
          hintmask 1001010111000000
          166 -23 callgsubr
          -558 -67 callgsubr
          hintmask 0011100111000000
          161 -6 callgsubr
          hintmask 0101001111000000
          -167 -24 rlineto
          hintmask 1001001111000000
          973 637 rmoveto
          471 174 203 240 253 140 -263 -378 -460 -145 -218 -249 -267 -146 270 375 vhcurveto
          endchar
        </CharString>
        <CharString name="afii10049">
          27 0 108 -108 132 533 118 602 -29 callgsubr
          -102 117 hstemhm
          182 247 513 232 hintmask 00000000
          hintmask 10100111
          2 hmoveto
          284 hlineto
          102 133 554 111 146 hvcurveto
          56 180 1 39 hhcurveto
          hintmask 01100111
          -534 vlineto
          -192 -24 rlineto
          hintmask 10100111
          1 -108 rlineto
          613 108 hlineto
          hintmask 01110011
          -190 24 10 callgsubr
          hintmask 10101011
          172 -68 callsubr
          -303 vlineto
          -106 -80 15 -109 hhcurveto
          hintmask 10100111
          -339 -227 -76 -349 -200 112 -158 181 -55 hvcurveto
          -172 -91 -119 -451 -104 -24 -78 -25 rcurveline
          758 675 rmoveto
          -208 -123 115 225 214 100 83 206 121 40 -13 -2 46 hvcurveto
          -613 vlineto
          -7 -35 -72 -2 -75 hhcurveto
          endchar
        </CharString>
        <CharString name="afii10050">
          -279 0 108 1290 124 -108 108 hstemhm
          269 238 129 callsubr
          45 hmoveto
          802 108 hlineto
          -340 26 rlineto
          1270 vlineto
          585 -12 20 489 rlineto
          -149 hlineto
          -65 -359 rlineto
          -848 hlineto
          hintmask 10110000
          -108 vlineto
          219 -30 rlineto
          -1249 vlineto
          -224 -27 rlineto
          endchar
        </CharString>
        <CharString name="afii10051">
          315 -409 136 273 110 -110 135 599 141 522 124 hstemhm
          605 238 181 389 -10 235 hintmask 00000000
          hintmask 11011101
          352 hmoveto
          693 110 hlineto
          hintmask 10111101
          -202 25 rlineto
          532 1 vlineto
          38 81 80 29 116 hhcurveto
          209 73 -131 -274 -398 -75 -204 -203 hvcurveto
          hintmask 11011110
          148 callsubr
          25 61 -9 45 hhcurveto
          hintmask 11011101
          317 163 327 442 302 -93 213 -367 -122 -147 -46 -44 -65 hvcurveto
          -1 -1 rlineto
          621 vlineto
          381 -15 48 -351 rlineto
          hintmask 10111110
          144 hlineto
          -2 483 rlineto
          -1323 hlineto
          -27 -483 rlineto
          147 hlineto
          61 351 333 15 rlineto
          -1270 vlineto
          hintmask 11011101
          -253 -25 rlineto
          endchar
        </CharString>
        <CharString name="afii10052">
          -239 0 108 1289 125 45 callgsubr
          275 238 -73 485 hintmask 00110100
          520 1633 -96 callsubr
          hintmask 00000000
          -390 -1701 rmoveto
          120 callsubr
          1270 98 callgsubr
          hintmask 11001000
          59 callgsubr
        </CharString>
        <CharString name="afii10053">
          -72 -23 119 612 150 560 120 hstem
          66 275 vstem
          66 762 rmoveto
          -469 256 -316 452 248 86 72 7 110 vhcurveto
          44 304 -136 14 -89 -205 rlineto
          -43 -43 -63 -30 -147 hhcurveto
          -285 -138 288 324 -20 hvcurveto
          122 -2 437 -14 78 -4 rrcurveto
          189 vlineto
          -78 -2 -436 -15 -123 -2 rrcurveto
          364 19 176 196 238 hhcurveto
          147 69 -27 -35 37 hvcurveto
          56 -241 rlineto
          150 hlineto
          18 358 rlineto
          15 -82 -172 50 -184 hhcurveto
          -424 -323 -318 -458 hvcurveto
          endchar
        </CharString>
        <CharString name="afii10054">
          41 callgsubr
          hstem
          160 callsubr
          527 244 vstem
          117 70 -32 callgsubr
        </CharString>
        <CharString name="afii10055">
          -70 callgsubr
        </CharString>
        <CharString name="afii10057">
          -632 -13 callgsubr
        </CharString>
        <CharString name="afii10058">
          666 -16 116 -112 186 -174 -66 callsubr
          134 597 131 524 65 callgsubr
          529 248 -43 callgsubr
          hintmask 0010110111000000
          75 hmoveto
          hintmask 0100110111000000
          -6 26 59 -6 56 hhcurveto
          110 80 46 108 62 hvcurveto
          99 174 62 357 532 vvcurveto
          181 393 vlineto
          hintmask 0001110111000000
          -1 -1252 rlineto
          hintmask 0010110111000000
          -213 -25 4 callsubr
          335 vlineto
          85 209 -16 49 hhcurveto
          hintmask 1000101111000000
          320 221 161 302 261 -184 154 -335 -37 -203 -6 -4 -17 hvcurveto
          533 vlineto
          190 26 rlineto
          hintmask 1000110111000000
          111 -189 vlineto
          -1 -3 rlineto
          3 -959 vlineto
          hintmask 0100101111000000
          -67 callgsubr
          199 -22 rlineto
          -170 vlineto
          -588 -61 -222 -82 -145 vhcurveto
          -64 -34 -39 -26 -56 hhcurveto
          -90 -44 6 2 -26 hvcurveto
          hintmask 1000110111000000
          1192 -64 rmoveto
          607 vlineto
          3 15 146 3 32 hhcurveto
          208 127 -94 -207 -209 -116 -121 -220 -105 -41 9 10 -45 hvcurveto
          endchar
        </CharString>
        <CharString name="afii10059">
          791 -21 123 -102 110 -110 134 581 131 -115 131 528 132 -14 callsubr
          -102 102 89 callsubr
          639 234 527 245 -43 callgsubr
          hintmask 0011000111100000
          97 hmoveto
          580 hlineto
          hintmask 0101000111100000
          110 vlineto
          hintmask 0011000111100000
          -178 24 rlineto
          581 639 -581 vlineto
          hintmask 0101000111100000
          -165 -24 rlineto
          hintmask 0011000111100000
          -110 249 vlineto
          85 232 -21 75 hhcurveto
          hintmask 1000110011100000
          315 215 144 324 261 -187 154 -330 hvcurveto
          -255 528 hlineto
          hintmask 1001000111100000
          171 30 rlineto
          102 -570 -102 vlineto
          hintmask 1001010011100000
          166 -30 -1 -544 rlineto
          -639 hlineto
          hintmask 1001001011100000
          540 vlineto
          173 25 rlineto
          hintmask 1001000111100000
          111 -567 vlineto
          hintmask 0011001011100000
          -67 callgsubr
          161 30 callsubr
          hintmask 0101000111100000
          -169 -25 rlineto
          hintmask 1000100111100000
          1275 16 rmoveto
          606 190 vlineto
          209 128 -93 -207 -210 -117 -119 -219 -81 -64 17 6 -46 hvcurveto
          endchar
        </CharString>
        <CharString name="afii10060">
          371 0 109 620 146 522 125 hstem
          616 240 550 232 vstem
          356 hmoveto
          701 -56 callsubr
          -201 25 rlineto
          537 1 vlineto
          31 84 69 27 157 hhcurveto
          195 44 -116 -264 hvcurveto
          -215 vlineto
          -141 -25 4 callsubr
          526 7 callsubr
          -153 24 rlineto
          288 vlineto
          342 -118 112 -303 -97 -171 -36 -47 -92 vhcurveto
          -1 -1 rlineto
          613 vlineto
          404 -14 51 -351 rlineto
          142 hlineto
          -3 483 rlineto
          -1353 hlineto
          -26 -483 rlineto
          146 hlineto
          62 351 337 14 rlineto
          -1271 vlineto
          -260 -24 rlineto
          endchar
        </CharString>
        <CharString name="afii10061">
          32 0 106 -106 109 589 108 605 41 callsubr
          265 229 133 485 hintmask 00001101
          707 1633 -96 callsubr
          hintmask 00000000
          -525 -1701 rmoveto
          563 hlineto
          hintmask 01110010
          106 vlineto
          87 callgsubr
          hintmask 10110010
          -19 callgsubr
          579 hlineto
          125 callsubr
          -553 32 callsubr
        </CharString>
        <CharString name="afii10062">
          57 callgsubr
          139 103 hstemhm
          -13 1334 -1035 143 callsubr
          hintmask 00101100
          679 1661 -88 callsubr
          hintmask 11010000
          -432 -1647 -90 callsubr
          endchar
        </CharString>
        <CharString name="afii10065">
          -62 callsubr
          115 callgsubr
          421 220 hintmask 00000000
          hintmask 01111100
          -91 callsubr
          hintmask 10111100
          -101 callsubr
          hintmask 01111100
          -98 callsubr
          endchar
        </CharString>
        <CharString name="afii10066">
          -237 -16 111 914 154 hstem
          55 243 557 252 vstem
          583 -16 rmoveto
          313 211 239 387 297 -110 256 -331 -199 -167 -107 -62 -53 hvcurveto
          14 255 110 91 115 45 77 38 192 18 147 16 100 13 17 54 14 131 17 110 rcurveline
          -118 hlineto
          -24 -76 -15 -47 -43 -7 -69 -9 rlinecurve
          -119 -17 -154 -35 -93 -60 rrcurveto
          -215 -118 -145 -261 -344 vvcurveto
          -568 217 -239 311 vhcurveto
          9 111 rmoveto
          -192 -102 174 625 hvcurveto
          61 57 134 54 95 hhcurveto
          202 69 -118 -325 -309 -64 -162 -199 hvcurveto
          endchar
        </CharString>
        <CharString name="afii10067">
          -101 -9 121 -91 -21 544 112 374 107 -107 117 hstemhm
          247 221 435 233 -157 251 hintmask 00000000
          hintmask 01101101
          104 hmoveto
          208 hlineto
          66 192 -9 101 hhcurveto
          hintmask 10101101
          405 154 137 225 128 -113 123 -207 16 hvcurveto
          hintmask 10101110
          140 45 86 94 128 vvcurveto
          152 -86 108 -378 vhcurveto
          hintmask 10110101
          -113 -149 -10 -76 hhcurveto
          -227 hlineto
          hintmask 10101110
          -107 vlineto
          140 -29 rlineto
          -866 vlineto
          -143 -26 rlineto
          364 547 rmoveto
          373 vlineto
          1 51 68 0 64 hhcurveto
          199 53 -62 -93 -118 -58 -101 -193 hvcurveto
          -184 -527 rmoveto
          415 226 vlineto
          hintmask 10101101
          196 89 -71 -151 -144 -82 -66 -240 hvcurveto
          hintmask 10101110
          -47 -113 6 11 -29 hvcurveto
          endchar
        </CharString>
        <CharString name="afii10068">
          -371 0 118 896 153 callsubr
          246 226 129 callsubr
          94 hmoveto
          121 callsubr
          897 97 callgsubr
          hintmask 10110000
          68 callsubr
        </CharString>
        <CharString name="afii10069">
          -131 0 120 892 125 -107 107 hstemhm
          18 148 188 130 329 225 17 140 hintmask 00000000
          hintmask 11011100
          26 121 rmoveto
          -1 -51 -7 -379 -68 vvcurveto
          148 hlineto
          5 50 40 262 32 65 rrcurveto
          hintmask 11011110
          744 hlineto
          24 -56 41 -270 3 -51 rrcurveto
          140 hlineto
          41 21 441 15 vvcurveto
          hintmask 10111100
          -117 -3 -2 3 rlineto
          -59 881 hlineto
          180 29 rlineto
          hintmask 11011100
          107 -1052 vlineto
          hintmask 10111100
          -107 vlineto
          188 -29 rlineto
          -12 vlineto
          -700 -139 -143 -76 -25 vhcurveto
          208 hmoveto
          69 106 68 309 356 vvcurveto
          hintmask 11011100
          120 329 -892 vlineto
          endchar
        </CharString>
        <CharString name="afii10070">
          -42 callsubr
          hstem
          85 241 469 236 vstem
          85 571 -92 callgsubr
        </CharString>
        <CharString name="afii10071">
          -42 callsubr
          187 297 hstemhm
          85 241 -106 53 callgsubr
          -174 130 callgsubr
          hintmask 00010110
          813 1355 -107 callsubr
          hintmask 11101001
          -261 -784 -92 callgsubr
        </CharString>
        <CharString name="afii10072">
          64 callsubr
          hstemhm
          845 221 110 callgsubr
          -6 1 rmoveto
          hintmask 01111000
          44 callgsubr
          hlineto
          hintmask 10111000
          -81 callsubr
        </CharString>
        <CharString name="afii10073">
          -309 -16 78 callsubr
          hstemhm
          741 242 -193 259 hintmask 00000000
          hintmask 10010100
          98 60 15 callgsubr
          hintmask 10011000
          32 callgsubr
          hintmask 10100100
          -301 142 vlineto
          hintmask 11011000
          2 callsubr
          hintmask 11010100
          15 callsubr
        </CharString>
        <CharString name="afii10074">
          -37 callgsubr
          endchar
        </CharString>
        <CharString name="afii10075">
          56 callsubr
          185 116 110 callsubr
          -106 140 callsubr
          -102 225 hintmask 00000000
          hintmask 10101001
          -56 callgsubr
          hintmask 11001001
          876 vlineto
          hintmask 10101001
          140 28 rlineto
          107 -518 -107 vlineto
          hintmask 11001001
          -4 callgsubr
          hintmask 10101001
          160 28 rlineto
          107 -529 -106 vlineto
          hintmask 11001001
          33 callgsubr
          hintmask 00010110
          660 1213 -84 callgsubr
          endchar
        </CharString>
        <CharString name="afii10076">
          -106 0 109 428 108 385 107 hstem
          246 223 vstem
          100 hmoveto
          -11 callgsubr
        </CharString>
        <CharString name="afii10077">
          -135 -13 194 -181 109 902 13 callsubr
          551 7 callsubr
          -171 17 rlineto
          869 vlineto
          178 31 rlineto
          hintmask 01101100
          111 -1044 vlineto
          hintmask 10011100
          38 callgsubr
          endchar
        </CharString>
        <CharString name="afii10078">
          340 0 109 910 118 -107 107 hstemhm
          14 1724 hintmask 00000000
          hintmask 10110000
          14 hmoveto
          494 -56 callsubr
          -181 18 43 585 rlineto
          hintmask 11010000
          28 307 110 -308 257 -652 rlineto
          146 hlineto
          234 652 rlineto
          hintmask 10110000
          98 319 39 -322 65 -581 -162 -18 4 callsubr
          553 7 callsubr
          -158 17 -130 875 203 29 rlineto
          107 -512 vlineto
          -209 -603 -57 -221 -69 221 -225 603 rlineto
          -498 -107 hlineto
          187 -29 -98 -875 -158 -17 rlineto
          endchar
        </CharString>
        <CharString name="afii10079">
          84 0 109 419 85 callsubr
          225 25 callsubr
          542 7 callsubr
          -148 17 rlineto
          875 vlineto
          34 callsubr
        </CharString>
        <CharString name="afii10080">
          -204 27 callgsubr
          hstem
          75 252 555 253 vstem
          75 -68 callgsubr
          endchar
        </CharString>
        <CharString name="afii10081">
          20 0 109 907 121 123 callgsubr
          490 224 hintmask 00000000
          hintmask 11011000
          48 callgsubr
          hintmask 10111000
          870 vlineto
          139 28 rlineto
          hintmask 11011000
          107 -1221 vlineto
          hintmask 10111000
          119 callgsubr
        </CharString>
        <CharString name="afii10082">
          -118 -52 callsubr
        </CharString>
        <CharString name="afii10083">
          -367 -23 53 callsubr
          hstem
          77 244 vstem
          -9 callsubr
          endchar
        </CharString>
        <CharString name="afii10084">
          -135 0 109 905 149 callsubr
          761 -56 callsubr
          -269 23 rlineto
          892 vlineto
          37 callgsubr
        </CharString>
        <CharString name="afii10085">
          -232 -28 callsubr
          hstemhm
          -2 1181 -420 420 110 callgsubr
          147 -306 rmoveto
          hintmask 01111000
          -189 vlineto
          hintmask 10111000
          -80 callsubr
          hintmask 10110100
          -98 callgsubr
          hintmask 10111000
          -42 -60 8 10 -17 hvcurveto
          endchar
        </CharString>
        <CharString name="afii10086">
          403 -498 -66 callsubr
          136 338 116 -116 148 897 146 -114 114 hstemhm
          85 246 298 392 -226 226 -226 401 289 246 -43 callgsubr
          hintmask 1010011100100000
          529 -24 rmoveto
          hintmask 0110011001100000
          133 82 43 53 57 hvcurveto
          -6 -208 rlineto
          -226 vlineto
          hintmask 1010011100100000
          -166 -27 4 callsubr
          vlineto
          hintmask 1010011001100000
          567 -56 callsubr
          hintmask 0110011100100000
          -173 27 rlineto
          226 vlineto
          -6 150 rlineto
          -21 41 64 -17 65 hhcurveto
          329 215 271 355 408 -223 157 -221 -135 -82 -42 -53 -56 hvcurveto
          7 220 rlineto
          353 vlineto
          -49 34 rlineto
          -2 hlineto
          -339 -43 rlineto
          -96 vlineto
          hintmask 1010011001100000
          164 -21 rlineto
          -227 vlineto
          5 -162 rlineto
          20 -40 -67 17 -64 hhcurveto
          -329 -215 -271 -354 hvcurveto
          hintmask 1010011100100000
          -407 223 -159 221 vhcurveto
          hintmask 1001011010100000
          91 148 rmoveto
          -153 -137 123 324 1 hvcurveto
          346 1 141 136 159 hhcurveto
          86 60 -44 -23 17 hvcurveto
          -809 vlineto
          -27 -32 -68 -26 -75 hhcurveto
          hintmask 1010101010100000
          401 35 rmoveto
          810 vlineto
          26 32 69 26 74 hhcurveto
          153 137 -125 -324 -1 hvcurveto
          -346 -142 -134 -158 -87 -60 44 23 -17 vhcurveto
          endchar
        </CharString>
        <CharString name="afii10087">
          0 106 925 106 hstem
          14 1201 18 callsubr
          533 106 vlineto
          -117 18 -354 469 -21 callsubr
        </CharString>
        <CharString name="afii10088">
          20 0 127 875 135 123 callgsubr
          485 227 110 callgsubr
          103 hmoveto
          1097 hlineto
          8 -16 25 -310 3 -51 rrcurveto
          140 hlineto
          4 10 55 479 16 vvcurveto
          -173 hlineto
          -1 -1 rlineto
          -77 hlineto
          hintmask 11011000
          875 vlineto
          hintmask 10111000
          136 28 rlineto
          107 -519 -107 vlineto
          hintmask 11011000
          156 -28 rlineto
          -875 -485 875 vlineto
          hintmask 10111000
          158 28 rlineto
          107 -524 -107 vlineto
          hintmask 11011000
          141 -28 rlineto
          -870 vlineto
          -144 -24 rlineto
          endchar
        </CharString>
        <CharString name="afii10089">
          -69 0 109 275 140 506 107 hstem
          143 230 500 224 vstem
          571 -10 callsubr
          endchar
        </CharString>
        <CharString name="afii10090">
          623 0 122 908 107 hstem
          139 callgsubr
          vstem
          80 hmoveto
          1877 100 hlineto
          -169 26 rlineto
          875 vlineto
          132 callsubr
          21 callgsubr
        </CharString>
        <CharString name="afii10091">
          621 0 122 -122 128 902 107 hstemhm
          139 callgsubr
          hintmask 00000000
          hintmask 10111100
          80 hmoveto
          1695 hlineto
          7 -16 26 -311 3 -52 rrcurveto
          140 hlineto
          hintmask 01111100
          3 12 55 479 16 vvcurveto
          -221 873 hlineto
          132 callsubr
          hintmask 10111100
          21 callgsubr
        </CharString>
        <CharString name="afii10092">
          36 -22 119 -97 118 443 126 334 115 hstemhm
          525 225 426 240 hintmask 00000000
          hintmask 01111100
          277 hmoveto
          320 hlineto
          79 205 -22 72 hhcurveto
          hintmask 10111100
          292 171 105 258 220 -135 126 -302 hvcurveto
          -229 -1 rlineto
          315 vlineto
          164 26 rlineto
          110 -844 vlineto
          5 -460 rlineto
          136 hlineto
          43 343 271 3 rlineto
          hintmask 01111100
          -896 vlineto
          -248 -18 rlineto
          hintmask 10111100
          473 10 rmoveto
          442 165 vlineto
          170 91 -67 -172 -159 -88 -66 -164 -65 -74 16 6 -35 hvcurveto
          endchar
        </CharString>
        <CharString name="afii10093">
          73 callgsubr
          153 callgsubr
          419 239 200 223 -43 callgsubr
          hintmask 0110011110000000
          1190 hmoveto
          23 callgsubr
          hintmask 1011001110000000
          36 callgsubr
          hintmask 1010101110000000
          195 23 rlineto
          hintmask 0110011110000000
          97 callsubr
          hintmask 1010011110000000
          16 callgsubr
        </CharString>
        <CharString name="afii10094">
          -247 -22 119 -97 100 -100 126 436 125 315 135 137 callsubr
          153 callgsubr
          419 239 hintmask 00000000
          hintmask 01010111
          75 hmoveto
          244 hlineto
          75 207 -22 74 hhcurveto
          hintmask 10011011
          36 callgsubr
          hintmask 10010111
          195 26 rlineto
          109 -582 -109 vlineto
          hintmask 00111011
          163 -26 rlineto
          -876 vlineto
          hintmask 01010111
          -172 -26 rlineto
          hintmask 10010111
          16 callgsubr
        </CharString>
        <CharString name="afii10095">
          133 callgsubr
          hstem
          761 250 vstem
          82 93 -20 callgsubr
        </CharString>
        <CharString name="afii10096">
          460 -23 122 -99 -66 callsubr
          132 391 128 379 107 -91 122 hstemhm
          247 227 268 249 557 249 -43 callgsubr
          hintmask 0101011110000000
          98 hmoveto
          548 -56 callsubr
          hintmask 0011011110000000
          -172 23 rlineto
          391 268 vlineto
          hintmask 1001011110000000
          -313 15 157 -233 342 hhcurveto
          274 267 213 385 336 -156 257 -361 -254 -248 -184 -333 -33 hvcurveto
          -271 hlineto
          hintmask 0011101110000000
          350 vlineto
          163 29 rlineto
          107 -536 -107 vlineto
          146 -28 rlineto
          -870 vlineto
          hintmask 0101011110000000
          -149 -23 rlineto
          hintmask 1001011110000000
          893 483 rmoveto
          305 95 149 183 201 78 -204 -282 -306 -96 -155 -184 -200 -77 210 283 vhcurveto
          endchar
        </CharString>
        <CharString name="afii10097">
          -82 0 109 352 116 453 116 -9 -20 hstemhm
          149 244 467 225 hintmask 00000000
          hintmask 11101100
          50 hmoveto
          299 hlineto
          55 70 353 109 124 hvcurveto
          262 -1 rlineto
          -329 vlineto
          -169 -23 4 callsubr
          543 7 callsubr
          -149 23 rlineto
          870 vlineto
          137 26 rlineto
          hintmask 11011100
          109 -214 vlineto
          -78 -140 9 -133 hhcurveto
          hintmask 11101100
          -314 -194 -109 -220 -160 77 -125 172 -48 hvcurveto
          -93 -99 -60 -227 -90 -21 -105 -28 rcurveline
          630 469 rmoveto
          -209 -78 109 147 163 126 33 147 109 57 -1 -3 28 hvcurveto
          -444 vlineto
          -5 -27 -100 1 -53 hhcurveto
          endchar
        </CharString>
        <CharString name="afii10098">
          -414 0 109 904 123 -108 109 hstemhm
          254 224 129 callsubr
          102 hmoveto
          649 -56 callsubr
          -273 23 rlineto
          883 vlineto
          477 -3 -10 450 rlineto
          -137 hlineto
          -38 -325 rlineto
          -664 hlineto
          hintmask 10110000
          -109 vlineto
          148 -26 rlineto
          -869 vlineto
          -152 -24 rlineto
          endchar
        </CharString>
        <CharString name="afii10099">
          -72 -489 -21 29 -21 502 141 callsubr
          792 155 170 114 hstemhm
          209 228 491 230 hintmask 00000000
          hintmask 01011111
          88 hmoveto
          490 hlineto
          hintmask 01101111
          108 vlineto
          hintmask 01011111
          -141 18 rlineto
          684 vlineto
          59 79 109 49 100 hhcurveto
          173 30 -93 -213 hvcurveto
          -566 vlineto
          -204 -25 -176 -117 -40 vhcurveto
          -30 -11 -57 -12 -21 3 10 -108 rcurveline
          hintmask 10011111
          11 -8 82 -1 16 1 rrcurveto
          230 12 131 180 340 vvcurveto
          590 vlineto
          330 -73 131 -256 -151 -173 -84 -69 -78 vhcurveto
          10 176 -1 147 rlineto
          236 114 -236 303 hlineto
          -47 34 rlineto
          -4 hlineto
          -341 -43 rlineto
          -97 vlineto
          165 -20 rlineto
          -177 -189 -114 189 -1117 vlineto
          hintmask 01101111
          -121 -17 rlineto
          endchar
        </CharString>
        <CharString name="afii10100">
          -377 0 118 896 122 560 -21 hstemhm
          248 226 -82 490 hintmask 00101000
          473 -86 callsubr
          hintmask 00000000
          -296 -1408 rmoveto
          121 callsubr
          897 97 callgsubr
          hintmask 11010000
          68 callsubr
        </CharString>
        <CharString name="afii10101">
          -335 -23 124 422 131 402 116 hstem
          70 250 vstem
          70 580 rmoveto
          -366 2 172 -237 363 hhcurveto
          181 133 52 64 78 hvcurveto
          2 204 rlineto
          -123 hlineto
          -40 -160 rlineto
          -21 -52 -66 -15 -80 hhcurveto
          -168 -135 127 295 -17 hvcurveto
          119 -2 277 -8 74 -1 rrcurveto
          152 vlineto
          -74 -2 -278 -7 -118 -1 rrcurveto
          288 19 131 114 166 hhcurveto
          90 53 -23 -35 38 hvcurveto
          46 -143 rlineto
          129 hlineto
          2 264 rlineto
          28 -61 -151 25 -130 hhcurveto
          -322 -262 -243 -349 2 hvcurveto
          endchar
        </CharString>
        <CharString name="afii10102">
          -363 96 callgsubr
          hstem
          127 212 396 219 vstem
          121 63 -97 callsubr
        </CharString>
        <CharString name="afii10103">
          -719 -35 callgsubr
          1038 -20 208 299 hstemhm
          193 288 -240 159 callgsubr
          hintmask 10100100
          79 hmoveto
          551 -56 callsubr
          hintmask 01100100
          -100 callgsubr
          hintmask 10100100
          55 callgsubr
          hintmask 00011000
          245 1243 -102 callsubr
          endchar
        </CharString>
        <CharString name="afii10104">
          -719 -35 callgsubr
          1038 -20 211 297 hstemhm
          -35 280 -4 229 -37 281 hintmask 00000000
          hintmask 00011010
          558 1355 -107 callsubr
          hintmask 00000000
          -12 -1355 rmoveto
          551 -56 callsubr
          hintmask 10100100
          -100 callgsubr
          hintmask 01100100
          75 callsubr
        </CharString>
        <CharString name="afii10105">
          -742 60 callsubr
          1662 -20 208 299 hstemhm
          195 288 -246 226 hintmask 00000000
          hintmask 01100100
          237 60 rmoveto
          hintmask 10100100
          -95 callgsubr
          hintmask 00011000
          91 70 callgsubr
          endchar
        </CharString>
        <CharString name="afii10106">
          310 -22 120 -111 194 -181 -66 callsubr
          127 433 126 325 126 -107 107 hstemhm
          352 125 328 226 422 238 -43 callgsubr
          hintmask 0010110111000000
          32 hmoveto
          hintmask 0100110111000000
          -6 23 38 -7 36 hhcurveto
          142 45 59 81 39 hvcurveto
          59 112 63 276 384 vvcurveto
          112 328 vlineto
          hintmask 0001110111000000
          -884 vlineto
          hintmask 0010110111000000
          -154 -18 4 callsubr
          269 vlineto
          hintmask 1000101111000000
          -2 86 193 -20 69 hhcurveto
          287 136 121 244 222 -135 121 -302 -88 -97 -13 -10 -38 hvcurveto
          332 vlineto
          178 31 rlineto
          hintmask 1000110111000000
          111 -1044 vlineto
          hintmask 0100101111000000
          38 callgsubr
          hintmask 1000110111000000
          1012 -77 rmoveto
          426 vlineto
          9 33 60 11 65 hhcurveto
          169 95 -56 -178 -159 -83 -69 -161 -98 -45 10 6 -35 hvcurveto
          endchar
        </CharString>
        <CharString name="afii10107">
          530 -22 120 -98 -66 callsubr
          126 402 122 -91 126 345 157 callgsubr
          422 237 -43 callgsubr
          hintmask 0101011110000000
          100 hmoveto
          541 -56 callsubr
          hintmask 0011011110000000
          -170 17 rlineto
          402 556 -403 vlineto
          -170 -17 rlineto
          hintmask 0101011110000000
          -108 242 vlineto
          77 211 -22 72 hhcurveto
          hintmask 1000111110000000
          286 164 118 244 223 -128 122 -307 -90 -96 -13 -11 -38 hvcurveto
          340 129 callgsubr
          hintmask 0011011110000000
          -352 -556 351 vlineto
          164 43 callsubr
          hintmask 0101011110000000
          -147 -17 rlineto
          hintmask 1000111110000000
          1150 4 rmoveto
          425 vlineto
          9 33 61 12 64 hhcurveto
          169 95 -58 -178 -158 -82 -67 -160 -102 -42 9 7 -35 hvcurveto
          endchar
        </CharString>
        <CharString name="afii10108">
          -45 0 109 806 155 167 114 hstem
          207 124 callsubr
          87 hmoveto
          491 -56 callsubr
          -142 17 rlineto
          684 vlineto
          58 77 113 47 100 hhcurveto
          175 29 -102 -214 hvcurveto
          -474 vlineto
          146 callgsubr
          -108 503 7 callsubr
          -144 17 rlineto
          472 vlineto
          328 -69 144 -259 -172 -160 -97 -64 -72 vhcurveto
          9 178 -1 150 rlineto
          253 114 -253 294 hlineto
          19 callgsubr
          -170 -157 -114 157 -1112 vlineto
          -120 -16 rlineto
          endchar
        </CharString>
        <CharString name="afii10109">
          -107 0 109 428 108 385 107 559 -21 hstemhm
          246 223 37 490 hintmask 00010100
          587 -86 callsubr
          hintmask 11101000
          -406 -1408 rmoveto
          -11 callgsubr
        </CharString>
        <CharString name="afii10110">
          -232 -28 callsubr
          185 116 hstemhm
          -2 1181 -971 197 354 420 -387 199 -43 callgsubr
          hintmask 1011010000000000
          147 -306 rmoveto
          hintmask 0111010000000000
          -189 vlineto
          hintmask 1011010000000000
          -80 callsubr
          hintmask 1011000100000000
          -98 callgsubr
          hintmask 1011010000000000
          -42 -60 8 10 -17 hvcurveto
          hintmask 0000101010000000
          455 1628 -84 callgsubr
          endchar
        </CharString>
        <CharString name="afii10145">
          221 0 126 1285 111 hstem
          266 231 253 156 231 231 vstem
          89 hmoveto
          616 hlineto
          6 -7 39 -335 -37 vvcurveto
          156 hlineto
          37 39 335 5 7 vhcurveto
          595 -56 callsubr
          -177 25 rlineto
          1251 vlineto
          163 26 102 callsubr
          172 -25 rlineto
          -1260 -640 1259 vlineto
          194 -68 callsubr
          -593 -67 callgsubr
          168 -26 rlineto
          -1252 vlineto
          -177 -24 rlineto
          endchar
        </CharString>
        <CharString name="afii10146">
          117 -16 116 -100 144 callsubr
          589 125 377 111 219 99 hstemhm
          476 233 523 242 hintmask 00000000
          hintmask 01011111
          296 hmoveto
          305 hlineto
          84 196 -16 50 hhcurveto
          hintmask 10011111
          321 222 173 271 218 -145 199 -368 -102 -104 -15 -10 -46 hvcurveto
          402 1 vlineto
          326 -27 49 -154 rlineto
          146 hlineto
          -25 292 rlineto
          -497 189 hlineto
          178 30 1 99 rlineto
          -581 -99 hlineto
          169 -30 rlineto
          -189 -468 vlineto
          -27 -292 rlineto
          145 hlineto
          52 154 298 27 rlineto
          hintmask 00111111
          -1091 vlineto
          hintmask 01011111
          -180 -22 rlineto
          hintmask 10011111
          413 9 rmoveto
          590 vlineto
          8 40 73 4 75 hhcurveto
          207 128 -138 -172 -178 -123 -132 -217 -100 -42 7 11 -41 hvcurveto
          endchar
        </CharString>
        <CharString name="afii10147">
          67 -23 118 546 147 -22 147 509 117 hstemhm
          150 callsubr
          hintmask 00000000
          hintmask 11011100
          727 -23 1 callsubr
          hintmask 10111100
          -401 820 rmoveto
          425 11 161 200 243 hhcurveto
          234 146 -197 -329 28 hvcurveto
          hintmask 11011100
          -37 -40 -72 -71 -86 -107 -132 125 -151 hhcurveto
          hintmask 10111100
          -104 -78 -55 -61 -53 hvcurveto
          3 -139 rmoveto
          37 39 68 71 87 101 137 -125 152 hhcurveto
          hintmask 11011100
          105 81 57 62 55 hvcurveto
          -445 -4 -163 -220 -247 hhcurveto
          hintmask 10111100
          -242 -147 216 347 -22 hvcurveto
          endchar
        </CharString>
        <CharString name="afii10148">
          -42 6 -21 1388 154 -116 111 hstemhm
          -35 1473 hintmask 00000000
          hintmask 10110000
          597 -15 rmoveto
          188 hlineto
          388 1142 rlineto
          hintmask 11010000
          210 54 104 36 95 hhcurveto
          12 139 hlineto
          6 -14 -30 9 -64 hhcurveto
          -113 -125 -59 -196 -45 hvcurveto
          -259 -824 -60 -248 -69 248 rlineto
          hintmask 10110000
          -317 938 180 -23 callgsubr
          -557 -67 callgsubr
          126 -26 rlineto
          endchar
        </CharString>
        <CharString name="afii10193">
          10 0 120 910 107 hstem
          247 224 185 142 154 223 vstem
          105 hmoveto
          500 hlineto
          3 -7 48 -325 -36 vvcurveto
          142 hlineto
          36 28 325 5 7 vhcurveto
          488 108 hlineto
          -144 24 rlineto
          869 vlineto
          136 29 rlineto
          107 -511 -107 vlineto
          152 -28 rlineto
          -882 -481 882 vlineto
          153 28 rlineto
          107 -518 -107 vlineto
          141 -29 rlineto
          -869 vlineto
          -142 -24 rlineto
          endchar
        </CharString>
        <CharString name="afii10194">
          13 -22 119 -97 96 -96 125 501 125 396 106 hstemhm
          510 224 420 239 hintmask 00000000
          hintmask 01011110
          343 hmoveto
          271 hlineto
          79 208 -22 71 hhcurveto
          hintmask 10011110
          284 137 152 244 217 -119 160 -300 -91 -110 -14 -10 -38 hvcurveto
          -1 -1 rlineto
          421 257 vlineto
          60 -233 rlineto
          140 hlineto
          -10 339 rlineto
          -447 392 hlineto
          -49 34 rlineto
          -2 hlineto
          -335 -43 rlineto
          -98 vlineto
          162 -18 rlineto
          -267 -431 vlineto
          -10 -339 rlineto
          138 hlineto
          59 233 rlineto
          244 hlineto
          hintmask 00111110
          -1022 vlineto
          hintmask 01011110
          -167 -29 rlineto
          hintmask 10011110
          391 17 rmoveto
          494 vlineto
          1 -1 rlineto
          8 33 77 12 65 hhcurveto
          167 77 -99 -169 -158 -83 -103 -158 -97 -45 10 6 -37 hvcurveto
          endchar
        </CharString>
        <CharString name="afii10195">
          -23 124 329 145 -27 140 356 124 hstemhm
          79 253 554 253 hintmask 00000000
          hintmask 10111100
          79 573 rmoveto
          -336 158 -260 359 275 268 209 386 336 -158 260 -360 -273 -269 -213 -382 vhcurveto
          253 69 rmoveto
          269 10 94 133 173 hhcurveto
          194 77 -195 -264 6 hvcurveto
          hintmask 11011100
          -7 -17 -20 -3 -25 hhcurveto
          hintmask 10111100
          -112 -80 113 -157 hhcurveto
          -56 -48 -19 -27 -39 hvcurveto
          277 -541 rmoveto
          -185 -80 178 248 -12 hvcurveto
          13 21 27 8 38 hhcurveto
          hintmask 11011100
          125 84 -118 159 hhcurveto
          37 32 8 13 27 hvcurveto
          hintmask 10111100
          -234 -20 -92 -116 -161 hhcurveto
          endchar
        </CharString>
        <CharString name="afii10196">
          -260 5 -21 1049 104 4 -20 hstemhm
          -2 1203 129 callsubr
          492 -16 rmoveto
          197 hlineto
          303 787 48 135 44 56 46 22 rlinecurve
          12 26 23 4 22 hhcurveto
          hintmask 10110000
          128 vlineto
          6 -14 -30 7 -59 hhcurveto
          -97 -89 -60 -177 -55 hvcurveto
          -151 -462 -81 -277 -91 276 rlineto
          hintmask 11010000
          -190 564 148 28 rlineto
          104 -494 -104 vlineto
          94 -27 rlineto
          endchar
        </CharString>
        <CharString name="afii10846">
          -316 93 callgsubr
          hstem
          82 236 455 239 vstem
          82 385 -16 callgsubr
        </CharString>
        <CharString name="afii61248">
          649 21 -21 41 117 496 139 -17 117 491 124 30 -20 hstemhm
          121 199 867 204 359 204 -43 callgsubr
          hintmask 1101011110000000
          597 hmoveto
          168 hlineto
          656 1538 rlineto
          -168 hlineto
          hintmask 1110111110000000
          -752 -884 rmoveto
          114 110 54 55 60 hvcurveto
          -53 97 rlineto
          -32 -43 -60 -35 -96 hhcurveto
          -117 -98 102 224 2 hvcurveto
          166 2 83 99 107 hhcurveto
          54 36 -20 -29 21 hvcurveto
          28 -123 rlineto
          121 hlineto
          5 254 rlineto
          12 -41 -87 30 -105 hhcurveto
          -270 -154 -211 -231 1 hvcurveto
          -238 1 142 -174 237 hhcurveto
          hintmask 1101011110000000
          686 -195 rmoveto
          -226 136 -192 229 209 193 153 277 234 -110 188 -256 -214 -187 -157 -277 vhcurveto
          204 11 rmoveto
          180 60 126 123 121 55 -139 -175 -180 -60 -124 -124 -118 -57 148 164 vhcurveto
          endchar
        </CharString>
        <CharString name="afii61352">
          1340 0 107 -107 132 56 149 204 122 724 135 -108 108 -108 132 hstemhm
          328 150 760 149 235 223 472 222 -43 callgsubr
          hintmask 1011001111100000
          1622 1052 rmoveto
          -286 -2 144 -225 304 hhcurveto
          251 218 195 320 2 hvcurveto
          284 2 -156 206 -286 hhcurveto
          -242 -232 -174 -320 -3 hvcurveto
          -1462 -1052 rmoveto
          503 107 hlineto
          hintmask 0111010111100000
          -185 25 rlineto
          1133 vlineto
          123 -263 rlineto
          hintmask 1011100111100000
          582 -1002 rlineto
          205 1387 hlineto
          hintmask 1011010111100000
          169 27 rlineto
          108 -496 -108 vlineto
          hintmask 1011100111100000
          177 -27 1 -1126 -106 251 rlineto
          hintmask 1011010111100000
          -577 1010 rlineto
          -396 -108 hlineto
          hintmask 0111100111100000
          168 -27 rlineto
          -1255 vlineto
          hintmask 1011001111100000
          -168 -25 rlineto
          1685 956 rmoveto
          247 76 117 163 -3 vhcurveto
          160 -3 73 -139 -241 vvcurveto
          -265 -70 -116 -165 3 vhcurveto
          -161 3 -76 155 242 vvcurveto
          -212 -875 rmoveto
          894 149 -894 hlineto
          endchar
        </CharString>
        <CharString name="agrave">
          -62 callsubr
          535 -21 115 callgsubr
          -146 490 77 -100 callsubr
          261 1003 -73 callgsubr
        </CharString>
        <CharString name="amacron">
          -62 callsubr
          267 158 115 callgsubr
          -71 558 -66 -100 callsubr
          -71 1097 17 callsubr
        </CharString>
        <CharString name="ampersand">
          138 -19 124 -99 -21 734 123 598 100 hstemhm
          121 218 -93 218 359 197 170 164 hintmask 00000000
          hintmask 10011011
          121 372 rmoveto
          -254 215 -137 331 103 151 26 88 112 vhcurveto
          hintmask 01110111
          95 -77 66 -32 100 -1 rrcurveto
          35 87 8 17 29 hvcurveto
          96 vlineto
          -105 9 -73 48 -76 70 92 101 73 168 -2 192 161 25 rcurveline
          123 -489 -123 vlineto
          161 -25 11 -115 -20 -145 -79 -111 rlinecurve
          -45 44 -101 99 -177 204 -95 117 rlinecurve
          183 124 156 103 242 vvcurveto
          134 -114 150 -251 -235 -174 -163 -195 -151 84 -158 90 -117 vhcurveto
          hintmask 10011011
          -145 -82 -154 -114 -188 vvcurveto
          494 495 rmoveto
          hintmask 10010111
          -63 74 -88 115 154 vvcurveto
          133 82 97 105 150 22 -123 -70 vhcurveto
          hintmask 10011011
          -166 -57 -91 -151 -123 vhcurveto
          -276 -468 rmoveto
          117 66 84 85 72 vhcurveto
          122 -146 188 -220 137 -128 rrcurveto
          -52 -75 -100 -21 -80 hhcurveto
          -231 -112 139 155 hvcurveto
          endchar
        </CharString>
        <CharString name="ampersand.sc">
          -389 endchar
        </CharString>
        <CharString name="aogonek">
          -265 -511 146 342 151 450 113 304 166 115 callgsubr
          242 208 -29 220 hintmask 00000000
          hintmask 11111010
          85 302 rmoveto
          -226 161 -99 185 167 128 107 43 44 vhcurveto
          -48 vlineto
          -75 21 -20 50 -5 vhcurveto
          hintmask 11111100
          -143 -69 -122 -124 -101 vvcurveto
          -142 125 -54 134 84 96 135 callgsubr
          -46 -46 -13 -49 hhcurveto
          -83 -64 35 86 78 116 115 146 51 hvcurveto
          20 4 17 4 14 4 rrcurveto
          98 vlineto
          hintmask 11111010
          -122 650 hlineto
          291 -98 110 -289 -193 -224 -115 -42 -46 vhcurveto
          50 -104 rlineto
          1 hlineto
          37 73 133 58 150 hhcurveto
          176 47 -71 -181 hvcurveto
          -52 vlineto
          -98 callsubr
          endchar
        </CharString>
        <CharString name="approxequal">
          -23 148 174 -8 173 249 174 -8 173 hstemhm
          205 984 hintmask 00000000
          hintmask 01001000
          289 204 71 callsubr
          hintmask 10001000
          28 callsubr
          hintmask 01001000
          136 callgsubr
          hintmask 00000000
          84 493 71 callsubr
          hintmask 00011000
          28 callsubr
          hintmask 00101000
          136 callgsubr
          endchar
        </CharString>
        <CharString name="aring">
          -62 callsubr
          148 106 348 109 115 callgsubr
          -126 159 350 157 -119 220 -43 callgsubr
          hintmask 0111001001000000
          -91 callsubr
          hintmask 1011001001000000
          -101 callsubr
          hintmask 0111001001000000
          -98 callsubr
          hintmask 0000110110000000
          204 978 -47 callsubr
          endchar
        </CharString>
        <CharString name="arrowboth">
          1149 684 172 hstem
          110 2383 vstem
          703 178 rmoveto
          115 117 -402 402 121 -13 rlineto
          1529 hlineto
          121 13 -402 -402 116 -117 592 591 -592 593 -116 -118 402 -401 -121 13 rlineto
          -1529 hlineto
          -121 -13 402 401 -115 118 -593 -593 rlineto
          endchar
        </CharString>
        <CharString name="arrowdown">
          123 143 148 callgsubr
          570 rmoveto
          13 -122 -402 403 -117 -115 591 -593 593 593 -118 115 -402 -402 14 121 rlineto
          883 vlineto
          -172 -1 rlineto
          endchar
        </CharString>
        <CharString name="arrowleft">
          123 684 172 hstem
          114 1309 vstem
          706 178 rmoveto
          116 117 -403 402 122 -13 rlineto
          880 hlineto
          2 172 rlineto
          -882 hlineto
          -122 -14 403 402 -116 118 -592 -593 rlineto
          endchar
        </CharString>
        <CharString name="arrowright">
          123 684 172 hstem
          107 1309 vstem
          1416 769 rmoveto
          -592 593 -116 -118 403 -402 -122 14 rlineto
          -882 hlineto
          2 -172 rlineto
          880 hlineto
          122 13 -403 -402 116 -117 rlineto
          endchar
        </CharString>
        <CharString name="arrowup">
          123 140 148 callgsubr
          141 rmoveto
          172 -1 rlineto
          883 vlineto
          -14 121 402 -402 118 115 -593 593 -591 -593 117 -115 402 403 -13 -122 rlineto
          endchar
        </CharString>
        <CharString name="arrowupdn">
          123 -420 2382 hstem
          682 172 vstem
          176 172 rmoveto
          592 -592 592 592 -118 116 -401 -403 13 122 rlineto
          1528 vlineto
          -13 122 401 -403 118 116 -592 592 -592 -592 117 -116 402 402 -13 -121 rlineto
          -1528 vlineto
          13 -121 -402 402 rlineto
          endchar
        </CharString>
        <CharString name="asciicircum">
          -50 1531 -20 hstem
          180 1003 vstem
          180 272 rmoveto
          208 hlineto
          292 1036 293 -1036 rlineto
          210 hlineto
          -404 1259 rlineto
          -200 hlineto
          endchar
        </CharString>
        <CharString name="asciitilde">
          3 441 174 -8 173 hstemhm
          215 984 hintmask 00000000
          hintmask 01100000
          299 497 71 callsubr
          hintmask 10100000
          28 callsubr
          hintmask 01100000
          136 callgsubr
          endchar
        </CharString>
        <CharString name="asterisk">
          -99 1159 -20 21 -20 hstemhm
          148 1018 hintmask 00000000
          hintmask 01100000
          256 802 rmoveto
          245 186 127 124 -38 -173 -31 -306 209 1 -40 305 -44 171 134 -119 243 -182 105 183 -282 119 -172 49 172 53 277 127 -103 175 -247 -186 -127 -120 38 170 32 305 rlineto
          -208 hlineto
          39 -307 43 -171 -132 119 -247 182 -101 -177 rlineto
          hintmask 10100000
          282 -122 169 -49 -169 -53 -278 -127 rlineto
          endchar
        </CharString>
        <CharString name="at">
          790 -513 144 330 192 -185 163 768 149 353 142 hstemhm
          186 163 265 199 459 167 393 148 -43 callgsubr
          hintmask 1011111110000000
          186 361 rmoveto
          -537 280 -337 488 197 186 61 86 103 vhcurveto
          -40 90 rlineto
          -53 -78 -188 -40 -143 hhcurveto
          -354 -288 256 517 619 396 378 440 329 318 -177 -482 -370 -210 -241 -144 -28 -19 80 142 12 hvcurveto
          16 197 54 304 32 145 -49 14 -35 17 -41 12 -25 5 -11 -28 -9 -26 rrcurveto
          39 -72 -91 16 -70 hhcurveto
          -328 -200 -386 -289 hvcurveto
          hintmask 1101111110000000
          -259 148 -153 136 162 150 240 236 88 vhcurveto
          -24 -141 -7 -93 5 -56 rrcurveto
          hintmask 1011111110000000
          -115 8 62 -64 71 hhcurveto
          171 396 275 550 501 -297 249 -421 -563 -513 -474 -708 hvcurveto
          hintmask 1101111110000000
          627 63 rmoveto
          236 101 239 177 63 125 -33 -41 39 vhcurveto
          -9 -63 -21 -78 -25 -74 rrcurveto
          -228 -80 -142 -229 -96 hhcurveto
          -105 -27 164 107 hvcurveto
          endchar
        </CharString>
        <CharString name="atilde">
          -62 callsubr
          175 160 7 159 115 callgsubr
          -218 856 -217 220 -43 callgsubr
          hintmask 0111001010000000
          -91 callsubr
          hintmask 1011001010000000
          -101 callsubr
          hintmask 0111001010000000
          -98 callsubr
          -43 callgsubr
          -121 1055 12 callsubr
          hintmask 0000010100000000
          -29 callsubr
          hintmask 0000100100000000
          47 callsubr
        </CharString>
        <CharString name="b">
          -172 -23 115 921 155 hstem
          160 227 523 246 vstem
          -14 callgsubr
          endchar
        </CharString>
        <CharString name="backslash">
          134 callgsubr
          59 742 vstem
          251 1599 rmoveto
          -192 hlineto
          550 -1962 rlineto
          192 hlineto
          endchar
        </CharString>
        <CharString name="bar">
          118 callsubr
          -186 rmoveto
          183 1966 -183 hlineto
          endchar
        </CharString>
        <CharString name="braceleft">
          117 callgsubr
          296 223 -88 189 hintmask 00000000
          hintmask 11110000
          296 -24 rmoveto
          -157 73 -99 243 99 86 15 21 81 vhcurveto
          102 vlineto
          -1 -5 -160 -2 -6 hhcurveto
          -120 -68 26 134 hvcurveto
          123 101 179 146 vvcurveto
          hintmask 11101000
          144 -109 60 -139 21 vhcurveto
          139 22 109 61 135 146 -101 180 123 vvcurveto
          hintmask 11110000
          133 68 27 120 5 161 -1 -1 5 vhcurveto
          100 vlineto
          21 -81 -86 15 -99 hhcurveto
          -239 -77 -93 -163 hvcurveto
          -192 135 -128 -160 vvcurveto
          hintmask 11101000
          -95 -15 -43 -239 1 vhcurveto
          -161 vlineto
          239 1 15 -65 -96 vvcurveto
          hintmask 11110000
          -161 -135 -126 -192 vvcurveto
          endchar
        </CharString>
        <CharString name="braceright">
          117 callgsubr
          415 189 -88 223 hintmask 00000000
          hintmask 11101000
          739 -24 rmoveto
          192 -135 126 161 vvcurveto
          96 15 65 239 -1 vhcurveto
          hintmask 11110000
          161 vlineto
          -239 -1 -15 43 95 160 135 128 192 vvcurveto
          163 -77 93 -239 -99 -86 -15 -21 -81 vhcurveto
          -100 vlineto
          hintmask 11101000
          1 5 161 1 5 hhcurveto
          120 68 -27 -133 hvcurveto
          -123 -101 -180 -146 vvcurveto
          hintmask 11110000
          -135 109 -61 139 -22 vhcurveto
          -139 -21 -109 -60 -144 -146 101 -179 -123 vvcurveto
          -134 -68 -26 -120 -6 -160 2 1 -5 vhcurveto
          -102 vlineto
          -21 81 86 -15 99 hhcurveto
          hintmask 11101000
          243 73 99 157 hvcurveto
          endchar
        </CharString>
        <CharString name="bracketleft">
          139 callsubr
          191 202 vstem
          191 -63 rmoveto
          -185 62 -33 148 109 94 19 23 86 vhcurveto
          95 -297 1656 297 94 vlineto
          19 -84 -94 22 -111 hhcurveto
          -149 -61 -33 -185 hvcurveto
          endchar
        </CharString>
        <CharString name="bracketright">
          139 callsubr
          480 202 vstem
          682 1429 rmoveto
          185 -61 33 -149 -111 -94 -22 -19 -84 vhcurveto
          -94 297 -1656 -297 -95 vlineto
          -23 86 94 -19 109 hhcurveto
          148 62 33 185 hvcurveto
          endchar
        </CharString>
        <CharString name="breve">
          -391 1351 180 hstem
          168 122 440 118 vstem
          511 1351 -93 callgsubr
        </CharString>
        <CharString name="breve.cap">
          -391 1643 169 hstem
          167 126 callsubr
          vstem
          512 1643 10 callsubr
        </CharString>
        <CharString name="breve.r">
          -391 1322 116 hstem
          119 140 callsubr
          vstem
          513 1322 -84 callgsubr
          endchar
        </CharString>
        <CharString name="breve.rcap">
          -397 1661 103 hstem
          114 143 callsubr
          vstem
          507 1661 -88 callsubr
          endchar
        </CharString>
        <CharString name="brokenbar">
          118 callsubr
          950 rmoveto
          183 830 -183 hlineto
          -1966 vmoveto
          183 827 -183 hlineto
          endchar
        </CharString>
        <CharString name="bullet">
          -565 476 156 callgsubr
          476 56 callgsubr
        </CharString>
        <CharString name="bullet.cap">
          -565 638 156 callgsubr
          638 56 callgsubr
        </CharString>
        <CharString name="c">
          88 callgsubr
          hstem
          77 244 vstem
          -9 callsubr
          endchar
        </CharString>
        <CharString name="cacute">
          88 callgsubr
          528 -21 hstemhm
          77 244 134 490 hintmask 00101000
          536 -86 callsubr
          hintmask 11010000
          -378 -857 -99 callsubr
          endchar
        </CharString>
        <CharString name="caron">
          -391 1342 458 hstem
          139 745 vstem
          421 1342 11 callsubr
        </CharString>
        <CharString name="caron.cap">
          -734 1676 88 callsubr
          -7 695 hintmask 00000000
          hintmask 01100000
          248 1676 -33 callgsubr
          hintmask 10100000
          -34 callsubr
          endchar
        </CharString>
        <CharString name="caronvertical">
          -1057 1027 658 hstem
          118 192 vstem
          185 1027 -50 callsubr
        </CharString>
        <CharString name="ccaron">
          88 callgsubr
          174 458 hstemhm
          77 244 -97 745 hintmask 00101000
          506 1342 -71 callsubr
          hintmask 11010000
          -147 -1188 -99 callsubr
          endchar
        </CharString>
        <CharString name="ccedilla">
          -366 128 callgsubr
          332 -21 1067 118 hstem
          77 244 281 179 vstem
          373 73 callsubr
          113 -71 111 -46 53 130 18 119 66 58 60 -43 92 rcurveline
          -42 -59 -101 -46 -126 hhcurveto
          -180 -149 147 347 2 hvcurveto
          284 1 116 141 173 hhcurveto
          73 63 -19 -46 19 hvcurveto
          46 -187 rlineto
          139 hlineto
          10 308 rlineto
          20 -53 -117 42 -138 hhcurveto
          -381 -196 -281 -336 1 hvcurveto
          2 -312 158 -240 317 -20 rrcurveto
          20 -40 28 -67 -59 118 callgsubr
          endchar
        </CharString>
        <CharString name="ccircumflex">
          88 callgsubr
          156 457 hstemhm
          77 244 -104 749 hintmask 00101000
          299 1324 -77 callgsubr
          hintmask 11010000
          -140 -831 -99 callsubr
          endchar
        </CharString>
        <CharString name="cdotaccent">
          88 callgsubr
          184 299 hstemhm
          77 244 131 288 hintmask 11010000
          -9 callsubr
          hintmask 00101000
          506 801 -102 callsubr
          endchar
        </CharString>
        <CharString name="cedilla">
          -798 128 callgsubr
          hstem
          243 179 vstem
          181 3 -87 callgsubr
          endchar
        </CharString>
        <CharString name="cent">
          -226 -22 153 -123 -21 1063 116 -4 -20 24 -20 hstemhm
          121 244 156 142 -49 143 hintmask 00000000
          hintmask 01001110
          527 -13 rmoveto
          -12 -230 rlineto
          143 hlineto
          hintmask 10100110
          11 221 147 9 141 73 64 67 rlinecurve
          -43 92 rlineto
          -42 -59 -101 -46 -126 hhcurveto
          -180 -149 147 347 2 hvcurveto
          284 1 116 141 173 hhcurveto
          73 63 -19 -46 19 hvcurveto
          46 -187 rlineto
          139 hlineto
          10 308 rlineto
          hintmask 01001101
          -46 17 -94 34 -113 9 11 209 rcurveline
          -143 hlineto
          hintmask 01010101
          -12 -213 -322 -40 -166 -262 1 -309 rlinecurve
          hintmask 01001110
          2 -288 134 -227 270 -49 rrcurveto
          endchar
        </CharString>
        <CharString name="circumflex">
          -360 1324 457 hstem
          148 749 vstem
          230 1324 24 callgsubr
        </CharString>
        <CharString name="circumflex.cap">
          -351 1654 359 hstem
          167 728 vstem
          252 1654 -90 callgsubr
        </CharString>
        <CharString name="colon">
          -707 1 -21 866 -21 hstemhm
          199 307 hintmask 01100000
          199 961 rmoveto
          -45 callsubr
          hintmask 10100000
          -845 vmoveto
          -45 callsubr
          endchar
        </CharString>
        <CharString name="colonmonetary">
          107 -27 114 -93 -21 32 -21 1433 122 hstemhm
          165 245 162 241 -126 265 -113 251 hintmask 00000000
          hintmask 00111101
          572 15 rmoveto
          -24 -345 rlineto
          125 hlineto
          22 314 rlineto
          hintmask 01011001
          -7 42 44 -4 46 hhcurveto
          23 hlineto
          -21 -303 rlineto
          hintmask 00111010
          124 hlineto
          22 313 165 23 83 56 79 4 rlinecurve
          28 244 -122 22 -73 -158 -38 -34 -51 -26 -62 -14 rlinecurve
          88 1292 33 -10 26 -12 15 -15 rlinecurve
          40 -201 rlineto
          126 hlineto
          20 314 rlineto
          hintmask 00111001
          -51 5 -87 32 -113 19 20 297 rcurveline
          -125 hlineto
          -17 -283 rlineto
          hintmask 00111101
          -15 -14 1 -15 hhcurveto
          -38 -37 -2 -5 -36 hvcurveto
          18 289 rlineto
          hintmask 00111010
          -125 hlineto
          -19 -314 rlineto
          -310 -89 -203 -273 -418 vvcurveto
          hintmask 00111101
          -351 140 -262 267 -99 vhcurveto
          hintmask 10011001
          132 100 rmoveto
          88 1296 rlineto
          4 25 25 2 27 hhcurveto
          27 28 -2 -2 26 hvcurveto
          -89 -1326 rlineto
          -59 -52 10 18 -46 hvcurveto
          -118 74 rmoveto
          -126 118 -50 210 247 vvcurveto
          315 97 202 159 87 vhcurveto
          endchar
        </CharString>
        <CharString name="comma">
          -726 -451 755 hstem
          330 191 vstem
          212 23 callsubr
          endchar
        </CharString>
        <CharString name="commaaccent">
          -734 7 callgsubr
          hstemhm
          309 187 hintmask 00000000
          hintmask 10110000
          224 -218 rmoveto
          -50 17 -23 23 -14 vhcurveto
          21 -14 24 -18 -38 vvcurveto
          -52 -21 -59 -38 -17 vhcurveto
          hintmask 11010000
          -83 callgsubr
          hintmask 10110000
          -38 -84 -19 -89 hvcurveto
          endchar
        </CharString>
        <CharString name="copyright">
          716 124 119 271 150 712 123 262 117 hstem
          195 136 287 191 988 137 vstem
          -2 callsubr
          287 -8 rmoveto
          -280 153 -201 297 143 126 81 72 57 vhcurveto
          -49 80 rlineto
          -49 -53 -72 -34 -85 hhcurveto
          -190 -136 149 219 207 90 137 159 102 32 -14 -21 28 hvcurveto
          46 -132 rlineto
          116 hlineto
          2 229 rlineto
          39 -40 -128 22 -88 hhcurveto
          -293 -217 -224 -280 hvcurveto
          endchar
        </CharString>
        <CharString name="currency">
          134 326 167 560 167 hstem
          337 178 512 185 vstem
          197 296 rmoveto
          122 -122 217 216 rlineto
          -41 67 79 -23 88 hhcurveto
          87 81 25 44 67 hvcurveto
          218 -217 122 122 -216 216 rlineto
          52 75 31 93 99 vvcurveto
          96 -29 87 -50 70 vhcurveto
          216 214 -122 122 -219 -218 rlineto
          42 -68 -82 24 -88 hhcurveto
          -87 -80 -26 -44 -66 hvcurveto
          -219 220 -121 -123 219 -218 rlineto
          -50 -75 -29 -93 -98 vvcurveto
          -96 27 -87 48 -70 vhcurveto
          360 -17 rmoveto
          -145 -112 123 151 149 79 137 171 144 118 -131 -154 -151 -75 -124 -180 hvcurveto
          endchar
        </CharString>
        <CharString name="d">
          -141 -48 callsubr
        </CharString>
        <CharString name="dagger">
          -338 1121 159 hstem
          439 197 vstem
          478 109 rmoveto
          121 hlineto
          38 788 -23 229 299 -9 rlineto
          168 vlineto
          -299 -9 22 211 rlineto
          165 -197 -165 vlineto
          23 -211 -299 9 -1 -168 300 9 -23 -229 rlineto
          endchar
        </CharString>
        <CharString name="daggerdbl">
          -337 482 158 481 159 hstemhm
          440 160 -122 159 hintmask 00000000
          hintmask 11100000
          161 479 rmoveto
          hintmask 11010000
          305 7 -26 -216 38 -712 rlineto
          hintmask 11100000
          122 hlineto
          37 712 -24 216 301 -7 rlineto
          166 vlineto
          -301 -8 24 283 -23 206 300 -9 rlineto
          168 vlineto
          hintmask 11010000
          -300 -9 23 209 rlineto
          167 vlineto
          hintmask 11100000
          -197 -167 hlineto
          24 -209 -303 9 rlineto
          -168 vlineto
          303 9 -24 -206 26 -283 -305 8 rlineto
          endchar
        </CharString>
        <CharString name="dcaron">
          62 -23 139 -139 154 896 658 -635 118 -19 -20 hstemhm
          84 105 callsubr
          238 192 hintmask 00000000
          hintmask 01010110
          530 -23 -30 callgsubr
          hintmask 10001110
          -31 callgsubr
          hintmask 01010110
          -92 callsubr
          hintmask 00100001
          765 896 -50 callsubr
        </CharString>
        <CharString name="dcroat">
          -142 -23 139 -139 53 callsubr
          -19 -20 161 117 hstemhm
          83 105 callsubr
          hintmask 00000000
          hintmask 01101110
          529 -23 -30 callgsubr
          hintmask 10011110
          104 -118 1174 144 117 -144 236 vlineto
          -49 36 rlineto
          -6 hlineto
          -373 -40 rlineto
          -97 vlineto
          201 -20 rlineto
          -115 -252 -117 252 -141 vlineto
          hintmask 01101110
          -92 callsubr
          endchar
        </CharString>
        <CharString name="degree">
          -471 944 145 408 144 hstem
          120 152 396 154 vstem
          470 944 rmoveto
          195 157 148 201 190 -146 158 -206 -191 -159 -148 -200 -191 159 -158 191 hvcurveto
          2 145 rmoveto
          -110 -90 93 111 117 82 87 115 112 87 -92 -112 -120 -79 -84 -117 hvcurveto
          endchar
        </CharString>
        <CharString name="dieresis">
          -391 1355 297 hstemhm
          139 53 callgsubr
          hintmask 00000000
          hintmask 11100000
          732 1355 -77 callsubr
        </CharString>
        <CharString name="dieresis.cap">
          -393 1687 0 callsubr
          120 25 callgsubr
          hintmask 00000000
          hintmask 01010000
          746 19 callsubr
          hintmask 10010000
          -66 callgsubr
          hintmask 01010000
          34 callgsubr
          hintmask 01100000
          -57 callgsubr
          hintmask 10100000
          -67 callsubr
          hintmask 01100000
          96 callsubr
        </CharString>
        <CharString name="divide">
          -51 534 161 hstemhm
          532 302 -286 303 hintmask 00000000
          hintmask 10100000
          686 884 rmoveto
          88 77 59 94 72 -44 62 -97 -81 -81 -66 -89 -81 67 -51 71 hvcurveto
          -471 -350 rmoveto
          932 161 -932 hlineto
          hintmask 11000000
          317 -500 rmoveto
          -82 66 -52 71 89 76 61 94 72 -44 62 -96 -82 -80 -66 -89 vhcurveto
          endchar
        </CharString>
        <CharString name="dollar">
          -43 -20 113 1333 112 -4 -20 hstemhm
          215 220 153 185 -158 129 213 230 hintmask 00000000
          hintmask 10110110
          203 68 rmoveto
          hintmask 10111010
          53 -24 160 -51 174 -13 -2 -238 rcurveline
          hintmask 11010110
          156 hlineto
          2 239 rlineto
          290 26 151 165 220 vvcurveto
          238 -170 96 -262 150 vhcurveto
          -159 89 -161 80 165 vvcurveto
          150 126 65 144 1 vhcurveto
          97 1 60 -22 40 -37 53 -233 rcurveline
          132 hlineto
          12 327 rlineto
          hintmask 11011010
          -52 22 -117 44 -157 10 rrcurveto
          224 vlineto
          hintmask 10110110
          -158 -228 hlineto
          -226 -31 -174 -141 -200 vvcurveto
          -238 136 -109 235 -122 vhcurveto
          201 -106 170 -89 -157 vvcurveto
          -165 -100 -83 -188 -118 -89 26 53 -58 vhcurveto
          -48 244 rlineto
          -137 hlineto
          endchar
        </CharString>
        <CharString name="dong">
          -71 0 124 142 137 -127 138 643 108 133 115 hstemhm
          175 224 448 214 hintmask 00000000
          hintmask 10111110
          539 276 rmoveto
          151 98 70 68 66 hvcurveto
          hintmask 11011110
          -55 vlineto
          -81 30 -12 68 77 104 22 14 52 vhcurveto
          101 -124 895 172 115 -172 245 vlineto
          -42 29 rlineto
          -5 hlineto
          -357 -40 rlineto
          -100 vlineto
          190 -14 rlineto
          -120 -295 -115 295 -163 vlineto
          16 -56 -65 14 -73 hhcurveto
          -300 -178 -187 -278 hvcurveto
          hintmask 10111110
          -284 178 -140 186 vhcurveto
          75 138 rmoveto
          -114 -105 95 216 4 hvcurveto
          251 5 112 81 132 hhcurveto
          96 86 -29 -31 17 hvcurveto
          -469 vlineto
          -47 -41 -83 -67 -109 hhcurveto
          -420 -414 rmoveto
          1015 124 -1015 hlineto
          endchar
        </CharString>
        <CharString name="dotaccent">
          -840 1352 299 hstem
          146 288 vstem
          277 1352 -102 callsubr
          endchar
        </CharString>
        <CharString name="dotaccent.cap">
          -839 1714 -21 hstem
          148 286 vstem
          278 1693 5 callsubr
        </CharString>
        <CharString name="dotlessi">
          -728 -35 callgsubr
          1038 -20 hstemhm
          240 159 callgsubr
          hintmask 10110000
          78 hmoveto
          551 -56 callsubr
          hintmask 01110000
          -100 callgsubr
          hintmask 10110000
          75 callsubr
        </CharString>
        <CharString name="dotlessj">
          -757 60 callsubr
          1662 -20 hstemhm
          238 226 hintmask 00000000
          hintmask 01110000
          238 60 rmoveto
          hintmask 10110000
          -95 callgsubr
          endchar
        </CharString>
        <CharString name="e">
          -42 callsubr
          hstem
          85 241 469 236 vstem
          85 571 -92 callgsubr
        </CharString>
        <CharString name="eacute">
          -42 callsubr
          528 -21 hstemhm
          85 241 125 490 -146 236 hintmask 00010100
          532 -86 callsubr
          hintmask 11101010
          -366 -837 -92 callgsubr
        </CharString>
        <CharString name="ebreve">
          -42 callsubr
          183 180 hstemhm
          85 241 -81 122 428 236 -224 118 hintmask 11101010
          85 571 -107 callgsubr
          hintmask 00010101
          -203 671 -93 callgsubr
        </CharString>
        <CharString name="ecaron">
          -42 callsubr
          174 458 hstemhm
          86 241 -108 745 -168 236 hintmask 00010100
          501 1342 -71 callsubr
          hintmask 11101010
          -133 -1168 -92 callgsubr
        </CharString>
        <CharString name="ecircumflex">
          -42 callsubr
          156 457 hstemhm
          85 241 -118 749 -162 236 hintmask 00010100
          290 1324 -77 callgsubr
          hintmask 11101010
          -123 -811 -92 callgsubr
        </CharString>
        <CharString name="edieresis">
          -42 callsubr
          187 297 hstemhm
          85 241 -110 53 callgsubr
          -170 130 callgsubr
          hintmask 00010110
          809 1355 -107 callsubr
          hintmask 11101001
          -257 -784 -92 callgsubr
        </CharString>
        <CharString name="edotaccent">
          -42 callsubr
          184 299 hstemhm
          85 241 121 288 60 236 hintmask 11101010
          85 571 -107 callgsubr
          hintmask 00010100
          -213 672 -102 callsubr
          endchar
        </CharString>
        <CharString name="egrave">
          -42 callsubr
          528 -21 hstemhm
          85 241 -93 490 72 236 hintmask 11101010
          85 571 -107 callgsubr
          hintmask 00010100
          -151 654 -73 callgsubr
        </CharString>
        <CharString name="eight">
          -112 -22 110 1359 102 hstemhm
          141 210 -155 198 515 189 -151 230 hintmask 00000000
          hintmask 11100100
          141 366 rmoveto
          -278 273 -110 242 275 246 160 253 209 -164 121 -178 102 vhcurveto
          hintmask 11011000
          165 100 98 145 146 vvcurveto
          205 -179 130 -263 -233 -227 -130 -243 -199 116 -117 141 -90 vhcurveto
          hintmask 11100100
          -214 -99 -98 -150 -155 vvcurveto
          hintmask 11011000
          601 510 rmoveto
          -180 99 -168 93 160 vvcurveto
          136 102 83 153 157 103 -99 -189 -106 -64 -110 -103 -67 vhcurveto
          hintmask 11100100
          -391 -465 rmoveto
          134 82 109 108 64 vhcurveto
          197 -110 209 -81 -186 vvcurveto
          -150 -129 -103 -152 -206 -109 132 191 vhcurveto
          endchar
        </CharString>
        <CharString name="eight.dnom">
          -381 -20 94 861 93 hstemhm
          106 26 callsubr
          hintmask 00000000
          hintmask 11100100
          106 -26 callsubr
          hintmask 11011000
          -26 callgsubr
          hintmask 11100100
          95 callsubr
          hintmask 11011000
          507 305 rmoveto
          -143 56 -137 50 104 vvcurveto
          88 84 61 103 116 83 -70 -111 -57 -35 -76 -71 -45 vhcurveto
          hintmask 11100100
          -323 -274 -19 callsubr
          endchar
        </CharString>
        <CharString name="ellipsis">
          379 -20 295 hstemhm
          145 307 291 306 291 306 hintmask 00000000
          hintmask 11110000
          1340 116 rmoveto
          -83 67 -53 72 90 77 62 97 72 -44 64 -97 -84 -81 -67 -92 vhcurveto
          -597 hmoveto
          -83 66 -53 73 90 77 62 97 72 -45 64 -96 -84 -81 -67 -92 vhcurveto
          -598 hmoveto
          -45 callsubr
          endchar
        </CharString>
        <CharString name="emacron">
          -42 callsubr
          260 158 hstemhm
          85 241 -18 558 -71 236 hintmask 11101010
          85 571 -107 callgsubr
          hintmask 00010100
          -483 748 17 callsubr
        </CharString>
        <CharString name="emdash">
          1054 534 163 hstem
          230 2007 vstem
          230 534 rmoveto
          2007 163 -2007 hlineto
          endchar
        </CharString>
        <CharString name="endash">
          194 533 164 hstem
          230 1147 vstem
          230 533 rmoveto
          1147 164 -1147 hlineto
          endchar
        </CharString>
        <CharString name="eng">
          -30 -489 -21 29 -21 502 141 callsubr
          884 156 hstemhm
          241 229 487 231 hintmask 00000000
          hintmask 01011110
          110 hmoveto
          497 hlineto
          hintmask 01101110
          108 vlineto
          hintmask 01011110
          -137 18 rlineto
          778 vlineto
          57 75 112 49 99 hhcurveto
          173 28 -94 -212 hvcurveto
          -658 vlineto
          -205 -22 -174 -119 -41 vhcurveto
          -30 -11 -58 -12 -21 3 10 -108 rcurveline
          hintmask 10011110
          11 -8 82 -1 16 1 rrcurveto
          232 13 130 179 340 vvcurveto
          682 vlineto
          329 -67 133 -262 -149 -175 -83 -81 -90 vhcurveto
          1 58 rlineto
          69 vlineto
          -47 104 callsubr
          -39 rlineto
          -120 vlineto
          142 -41 rlineto
          -842 vlineto
          hintmask 01101110
          114 callsubr
        </CharString>
        <CharString name="eogonek">
          -301 -510 145 342 154 433 116 367 121 hstem
          86 241 139 209 121 236 vstem
          466 -304 rmoveto
          -152 141 -54 136 82 89 23 41 55 vhcurveto
          7 callsubr
          -18 -41 -42 -10 -47 hhcurveto
          -89 -75 41 92 84 71 75 157 125 hvcurveto
          46 23 38 27 26 27 -42 96 rcurveline
          -47 -61 -129 -47 -114 hhcurveto
          109 callgsubr
          693 hlineto
          11 48 2 63 -1 85 rrcurveto
          265 -9 -145 143 -255 hhcurveto
          -312 -225 -239 -358 -349 168 -245 345 28 29 3 4 29 hvcurveto
          -129 -75 -90 -119 -94 vvcurveto
          -139 984 rmoveto
          283 13 102 84 137 hhcurveto
          159 57 -126 -155 1 hvcurveto
          -25 -1 -34 -3 -27 vhcurveto
          endchar
        </CharString>
        <CharString name="equal">
          107 callgsubr
          811 rmoveto
          922 159 -922 hlineto
          -709 vmoveto
          922 159 -922 hlineto
          endchar
        </CharString>
        <CharString name="estimated">
          -20 -21 128 519 126 494 115 hstem
          109 308 577 290 vstem
          417 262 rmoveto
          364 855 vlineto
          12 51 0 69 87 vvcurveto
          -12 332 -223 201 -298 -5 rrcurveto
          -425 -6 -217 -289 -395 vvcurveto
          -404 264 -288 369 158 197 50 62 85 vhcurveto
          -53 105 rlineto
          -46 -68 -156 -43 -156 hhcurveto
          -137 -117 51 104 -78 hvcurveto
          490 vmoveto
          350 vlineto
          106 71 108 38 146 hhcurveto
          121 80 -39 -60 51 hvcurveto
          -395 vlineto
          endchar
        </CharString>
        <CharString name="eth">
          -224 -23 122 956 113 490 -21 81 -21 hstem
          79 250 543 243 vstem
          79 535 rmoveto
          -323 164 -235 354 382 136 365 324 422 -231 336 -314 213 vhcurveto
          53 62 63 79 0 vvcurveto
          -98 81 rlineto
          0 -69 -90 -56 -69 vhcurveto
          -85 47 -67 31 -102 28 -44 -109 rcurveline
          53 -14 91 -44 71 -47 -137 -161 rcurveline
          104 -74 133 164 147 -98 114 -149 57 -143 rlinecurve
          19 -47 -66 18 -78 hhcurveto
          -272 -256 -209 -424 hvcurveto
          525 -436 rmoveto
          -202 -73 223 234 318 108 181 177 121 70 -55 -38 27 hvcurveto
          15 -50 25 -114 -154 vvcurveto
          -359 -84 -186 -184 vhcurveto
          endchar
        </CharString>
        <CharString name="exclam">
          -686 1 -21 hstem
          209 274 vstem
          284 509 8 callgsubr
          endchar
        </CharString>
        <CharString name="exclamdbl">
          -59 1 -21 hstemhm
          209 274 353 274 hintmask 10100000
          911 509 8 callgsubr
          hintmask 11000000
          -552 393 8 callgsubr
          endchar
        </CharString>
        <CharString name="exclamdown">
          -686 1415 21 hstem
          244 274 vstem
          443 907 rmoveto
          -139 hlineto
          -60 -1275 rlineto
          263 hlineto
          11 1668 rmoveto
          84 -67 52 -74 -91 -76 -60 -98 -73 44 -63 98 84 82 67 91 vhcurveto
          endchar
        </CharString>
        <CharString name="f">
          -585 92 callgsubr
          hstem
          258 229 vstem
          89 hmoveto
          -105 callsubr
          endchar
        </CharString>
        <CharString name="f_f">
          243 92 callgsubr
          hstemhm
          258 229 599 229 hintmask 11110000
          89 hmoveto
          -105 callsubr
          hintmask 11101000
          828 -108 rmoveto
          -105 callsubr
          endchar
        </CharString>
        <CharString name="f_f_i">
          928 -16 callsubr
          599 229 581 229 hintmask 0101011000000000
          89 hmoveto
          -105 callsubr
          hintmask 0101010100000000
          828 -108 rmoveto
          -105 callsubr
          -43 callgsubr
          817 -108 rmoveto
          551 -56 callsubr
          hintmask 1000100010000000
          -100 callgsubr
          hintmask 0010100010000000
          55 callgsubr
          hintmask 1000100010000000
          245 1243 -102 callsubr
          endchar
        </CharString>
        <CharString name="f_f_i_dflt">
          928 -16 callsubr
          599 229 581 229 hintmask 0101011000000000
          89 hmoveto
          -105 callsubr
          hintmask 0101010100000000
          828 -108 rmoveto
          -105 callsubr
          -43 callgsubr
          817 -108 rmoveto
          551 -56 callsubr
          hintmask 1000100010000000
          -100 callgsubr
          hintmask 0010100010000000
          75 callsubr
        </CharString>
        <CharString name="f_f_i_trk">
          928 -16 callsubr
          599 229 581 229 hintmask 0101011000000000
          89 hmoveto
          -105 callsubr
          hintmask 0101010100000000
          828 -108 rmoveto
          -105 callsubr
          -43 callgsubr
          817 -108 rmoveto
          551 -56 callsubr
          hintmask 1000100010000000
          -100 callgsubr
          hintmask 0010100010000000
          55 callgsubr
          hintmask 1000100010000000
          245 1243 -102 callsubr
          endchar
        </CharString>
        <CharString name="f_f_l">
          931 -35 callsubr
          117 -117 126 865 144 373 80 callgsubr
          599 229 576 228 hintmask 01011100
          89 hmoveto
          -105 callsubr
          hintmask 01011010
          828 -108 rmoveto
          -105 callsubr
          hintmask 00000000
          812 -108 rmoveto
          560 -56 callsubr
          hintmask 10000001
          -52 callgsubr
          hintmask 00100001
          75 callsubr
        </CharString>
        <CharString name="f_i_trk">
          100 -16 callsubr
          581 229 hintmask 01010110
          89 hmoveto
          -105 callsubr
          hintmask 00000000
          817 -108 rmoveto
          551 -56 callsubr
          hintmask 10001001
          -100 callgsubr
          hintmask 00101001
          55 callgsubr
          hintmask 10001001
          245 1243 -102 callsubr
          endchar
        </CharString>
        <CharString name="fi">
          100 -16 callsubr
          581 229 hintmask 01010110
          74 callsubr
          148 46 52 101 77 85 -34 -19 19 vhcurveto
          224 vlineto
          7 -19 -45 10 -56 hhcurveto
          -217 -219 -208 -261 hvcurveto
          -92 vlineto
          -191 -45 rlineto
          -99 191 -864 vlineto
          -169 -19 rlineto
          hintmask 00000000
          817 -108 rmoveto
          551 -56 callsubr
          hintmask 10001001
          -100 callgsubr
          hintmask 00101001
          55 callgsubr
          hintmask 10001001
          245 1243 -102 callsubr
          endchar
        </CharString>
</ttFont>
